<svg width="412" height="448" viewBox="0 0 412 448" fill="none" xmlns="http://www.w3.org/2000/svg">
<g filter="url(#filter0_d_12857_44735)">
<path d="M392 16H24V416H392V16Z" fill="#F2B760"/>
<mask id="mask0_12857_44735" style="mask-type:alpha" maskUnits="userSpaceOnUse" x="24" y="16" width="368" height="400">
<path d="M392 16H24V416H392V16Z" fill="#F2B760"/>
</mask>
<g mask="url(#mask0_12857_44735)">
<rect width="368" height="72" transform="translate(24 344)" fill="white"/>
<path d="M92.02 386V380.66H97.3V378.44H92.02V374.9H97.74V372.68H89.5V386H92.02ZM102.289 386V376.26H99.8492V386H102.289ZM102.289 374.88V372.06H99.8492V374.88H102.289ZM113.284 386V378.94C113.284 377.2 112.704 376.06 111.084 376.06C109.944 376.06 108.404 376.48 107.184 377.08L106.944 376.26H105.084V386H107.524V379.24C108.404 378.78 109.464 378.42 110.064 378.42C110.624 378.42 110.844 378.68 110.844 379.2V386H113.284ZM118.422 386V376.26H115.982V386H118.422ZM118.422 374.88V372.06H115.982V374.88H118.422ZM127.756 383.16C127.756 381.16 127.496 380.8 124.776 380.08C123.456 379.74 123.396 379.68 123.396 378.9C123.396 378.3 123.576 378.06 124.636 378.06C125.396 378.06 126.576 378.2 127.316 378.34L127.556 376.4C126.716 376.18 125.536 376.06 124.636 376.06C121.856 376.06 120.996 376.92 120.996 378.88C120.996 380.76 121.276 381.36 123.656 381.94C125.236 382.32 125.356 382.62 125.356 383.22C125.356 383.96 125.196 384.2 124.116 384.2C123.116 384.2 122.036 384.02 121.216 383.78L120.876 385.64C121.776 385.96 123.196 386.2 124.236 386.2C127.176 386.2 127.756 385.04 127.756 383.16ZM138.362 386V378.94C138.362 377.2 137.782 376.06 136.162 376.06C135.122 376.06 133.682 376.44 132.602 377V371.94L130.162 372.28V386H132.602V379.24C133.482 378.78 134.542 378.42 135.142 378.42C135.702 378.42 135.922 378.68 135.922 379.2V386H138.362ZM143.06 382.56V382.06H148.48V379.98C148.48 377.88 147.78 376.06 144.66 376.06C141.54 376.06 140.62 377.8 140.62 379.86V382.44C140.62 384.78 141.68 386.2 144.74 386.2C145.9 386.2 147.22 386 148.32 385.58L147.94 383.74C146.88 384.06 145.9 384.2 144.96 384.2C143.48 384.2 143.06 383.74 143.06 382.56ZM143.06 379.62C143.06 378.7 143.48 378.06 144.68 378.06C145.88 378.06 146.16 378.7 146.16 379.62V380.1H143.06V379.62ZM150.289 382.82C150.289 385.04 151.329 386.2 153.289 386.2C154.509 386.2 155.509 385.8 156.369 385.18L156.609 386H158.549V371.94L156.109 372.28V376.34C155.349 376.18 154.369 376.06 153.509 376.06C151.249 376.06 150.289 377.34 150.289 379.5V382.82ZM156.109 383.24C155.589 383.72 154.729 384.12 153.929 384.12C153.029 384.12 152.729 383.68 152.729 382.88V379.44C152.729 378.56 153.069 378.14 153.949 378.14C154.649 378.14 155.469 378.26 156.109 378.4V383.24ZM165.652 372.68V386H170.612C173.892 386 175.032 384.32 175.032 382.42V376.26C175.032 374.34 173.892 372.68 170.612 372.68H165.652ZM168.172 374.9H170.352C172.052 374.9 172.512 375.58 172.512 376.86V381.82C172.512 383.1 172.052 383.78 170.352 383.78H168.172V374.9ZM179.623 382.56V382.06H185.043V379.98C185.043 377.88 184.343 376.06 181.223 376.06C178.103 376.06 177.183 377.8 177.183 379.86V382.44C177.183 384.78 178.243 386.2 181.303 386.2C182.463 386.2 183.783 386 184.883 385.58L184.503 383.74C183.443 384.06 182.463 384.2 181.523 384.2C180.043 384.2 179.623 383.74 179.623 382.56ZM179.623 379.62C179.623 378.7 180.043 378.06 181.243 378.06C182.443 378.06 182.723 378.7 182.723 379.62V380.1H179.623V379.62ZM195.412 376.26H192.912L190.672 383.66L188.452 376.26H185.952L189.072 386H192.292L195.412 376.26ZM199.36 386V376.26H196.92V386H199.36ZM199.36 374.88V372.06H196.92V374.88H199.36ZM205.914 386.2C206.714 386.2 207.654 386.06 208.294 385.84L207.994 383.84C207.294 384.02 206.594 384.1 205.974 384.1C204.574 384.1 204.154 383.68 204.154 382.48V379.78C204.154 378.58 204.574 378.16 205.974 378.16C206.454 378.16 207.334 378.24 207.994 378.42L208.294 376.42C207.574 376.18 206.594 376.06 205.914 376.06C202.854 376.06 201.714 377.18 201.714 379.8V382.46C201.714 385.08 202.854 386.2 205.914 386.2ZM212.377 382.56V382.06H217.797V379.98C217.797 377.88 217.097 376.06 213.977 376.06C210.857 376.06 209.937 377.8 209.937 379.86V382.44C209.937 384.78 210.997 386.2 214.057 386.2C215.217 386.2 216.537 386 217.637 385.58L217.257 383.74C216.197 384.06 215.217 384.2 214.277 384.2C212.797 384.2 212.377 383.74 212.377 382.56ZM212.377 379.62C212.377 378.7 212.797 378.06 213.997 378.06C215.197 378.06 215.477 378.7 215.477 379.62V380.1H212.377V379.62ZM232.605 382.38C232.605 379.72 232.425 379.14 228.845 378.28C226.545 377.72 226.505 377.68 226.505 376.16C226.505 375 226.805 374.64 228.505 374.64C229.665 374.64 230.965 374.8 232.065 375.04L232.345 372.92C231.025 372.62 229.625 372.48 228.465 372.48C225.085 372.48 223.985 373.68 223.985 376.1C223.985 378.92 224.425 379.54 227.645 380.26C230.045 380.78 230.085 380.9 230.085 382.38C230.085 383.66 229.785 384.04 227.965 384.04C226.645 384.04 225.445 383.8 224.205 383.42L223.765 385.4C224.645 385.82 226.405 386.2 227.925 386.2C231.865 386.2 232.605 384.9 232.605 382.38ZM236.908 382.56V382.06H242.328V379.98C242.328 377.88 241.628 376.06 238.508 376.06C235.388 376.06 234.468 377.8 234.468 379.86V382.44C234.468 384.78 235.528 386.2 238.588 386.2C239.748 386.2 241.068 386 242.168 385.58L241.788 383.74C240.728 384.06 239.748 384.2 238.808 384.2C237.328 384.2 236.908 383.74 236.908 382.56ZM236.908 379.62C236.908 378.7 237.328 378.06 238.528 378.06C239.728 378.06 240.008 378.7 240.008 379.62V380.1H236.908V379.62ZM249.317 376.06C248.457 376.3 247.297 376.98 246.757 377.34L246.597 376.26H244.537V386H246.977V379.72C247.857 379.16 248.617 378.72 249.557 378.3L249.317 376.06ZM259.708 376.26H257.208L254.968 383.66L252.748 376.26H250.248L253.368 386H256.588L259.708 376.26ZM263.656 386V376.26H261.216V386H263.656ZM263.656 374.88V372.06H261.216V374.88H263.656ZM270.211 386.2C271.011 386.2 271.951 386.06 272.591 385.84L272.291 383.84C271.591 384.02 270.891 384.1 270.271 384.1C268.871 384.1 268.451 383.68 268.451 382.48V379.78C268.451 378.58 268.871 378.16 270.271 378.16C270.751 378.16 271.631 378.24 272.291 378.42L272.591 376.42C271.871 376.18 270.891 376.06 270.211 376.06C267.151 376.06 266.011 377.18 266.011 379.8V382.46C266.011 385.08 267.151 386.2 270.211 386.2ZM276.673 382.56V382.06H282.093V379.98C282.093 377.88 281.393 376.06 278.273 376.06C275.153 376.06 274.233 377.8 274.233 379.86V382.44C274.233 384.78 275.293 386.2 278.353 386.2C279.513 386.2 280.833 386 281.933 385.58L281.553 383.74C280.493 384.06 279.513 384.2 278.573 384.2C277.093 384.2 276.673 383.74 276.673 382.56ZM276.673 379.62C276.673 378.7 277.093 378.06 278.293 378.06C279.493 378.06 279.773 378.7 279.773 379.62V380.1H276.673V379.62ZM290.842 383.16C290.842 381.16 290.582 380.8 287.862 380.08C286.542 379.74 286.482 379.68 286.482 378.9C286.482 378.3 286.662 378.06 287.722 378.06C288.482 378.06 289.662 378.2 290.402 378.34L290.642 376.4C289.802 376.18 288.622 376.06 287.722 376.06C284.942 376.06 284.082 376.92 284.082 378.88C284.082 380.76 284.362 381.36 286.742 381.94C288.322 382.32 288.442 382.62 288.442 383.22C288.442 383.96 288.282 384.2 287.202 384.2C286.202 384.2 285.122 384.02 284.302 383.78L283.962 385.64C284.862 385.96 286.282 386.2 287.322 386.2C290.262 386.2 290.842 385.04 290.842 383.16Z" fill="#191A1B"/>
</g>
<path fill-rule="evenodd" clip-rule="evenodd" d="M239.773 167.177L233.305 173.549L239.773 182.155C240 182.491 240.114 182.826 240 183.161C239.887 183.497 239.66 183.832 239.319 183.944L215.603 193.333C215.489 193.445 215.262 193.445 215.149 193.445C214.809 193.445 214.468 193.333 214.241 192.998L208 184.838L201.759 192.998C201.532 193.333 201.192 193.445 200.851 193.445C200.718 193.445 200.624 193.406 200.546 193.375C200.491 193.352 200.444 193.333 200.397 193.333L176.681 183.944C176.34 183.72 176 183.497 176 183.161C176 182.826 176 182.491 176.227 182.155L182.809 173.549L176.34 167.289C176 167.066 175.887 166.618 176 166.283C176.114 165.836 176.34 165.612 176.681 165.389L200.397 156.111C200.851 155.888 201.305 156 201.645 156.335L208 162.594L214.355 156.335C214.695 156 215.149 156 215.603 156.111L239.433 165.389C239.773 165.501 240 165.836 240.114 166.171C240.114 166.507 240 166.954 239.773 167.177ZM236.823 166.954L215.376 158.459L210.043 163.712L231.489 172.207L236.823 166.954ZM187.348 173.437L208 181.596L228.653 173.437L208 165.277L187.348 173.437ZM205.958 163.712L200.624 158.459L179.177 166.842L184.511 172.207L205.958 163.712ZM178.95 182.379L200.511 190.874L206.184 183.385L184.624 174.89L178.95 182.379ZM209.816 183.385L215.489 190.874L237.05 182.379L231.376 174.89L209.816 183.385Z" fill="white"/>
<path d="M230.582 194.563C230.582 193.892 231.035 193.445 231.716 193.445C232.397 193.445 232.851 193.892 232.851 194.563V201.605C232.851 202.052 232.624 202.387 232.17 202.61L208.454 212C208.34 212.111 208.227 212.111 208 212.111C207.867 212.111 207.773 212.073 207.695 212.041C207.64 212.019 207.593 212 207.546 212L183.83 202.61C183.376 202.499 183.149 202.052 183.149 201.605V194.563C183.149 193.892 183.603 193.445 184.284 193.445C184.965 193.445 185.418 193.892 185.418 194.563V200.822L208 209.764L230.582 200.822V194.563Z" fill="white"/>
</g>
<defs>
<filter id="filter0_d_12857_44735" x="0" y="0" width="416" height="448" filterUnits="userSpaceOnUse" color-interpolation-filters="sRGB">
<feFlood flood-opacity="0" result="BackgroundImageFix"/>
<feColorMatrix in="SourceAlpha" type="matrix" values="0 0 0 0 0 0 0 0 0 0 0 0 0 0 0 0 0 0 127 0" result="hardAlpha"/>
<feOffset dy="8"/>
<feGaussianBlur stdDeviation="12"/>
<feComposite in2="hardAlpha" operator="out"/>
<feColorMatrix type="matrix" values="0 0 0 0 0.0993924 0 0 0 0 0.101302 0 0 0 0 0.104167 0 0 0 0.1 0"/>
<feBlend mode="normal" in2="BackgroundImageFix" result="effect1_dropShadow_12857_44735"/>
<feBlend mode="normal" in="SourceGraphic" in2="effect1_dropShadow_12857_44735" result="shape"/>
</filter>
</defs>
</svg>
