<svg width="416" height="448" viewBox="0 0 416 448" fill="none" xmlns="http://www.w3.org/2000/svg">
<g filter="url(#filter0_d_12857_44734)">
<path d="M344 16H24V416H344L392 216L344 16Z" fill="#252525"/>
<mask id="mask0_12857_44734" style="mask-type:alpha" maskUnits="userSpaceOnUse" x="24" y="16" width="368" height="400">
<path d="M344 16H24V416H344L392 216L344 16Z" fill="#252525"/>
</mask>
<g mask="url(#mask0_12857_44734)">
<rect width="368" height="72" transform="translate(24 344)" fill="white"/>
<path d="M100.22 377.38L100.44 386H103.02L102.42 372.68H99.6L96.16 382.14L92.72 372.68H89.9L89.3 386H91.88L92.1 377.38L94.56 384.28H97.76L100.22 377.38ZM112.85 379.58C112.85 377.14 111.95 376.06 108.89 376.06C107.81 376.06 106.47 376.24 105.55 376.52L105.85 378.38C106.71 378.2 107.67 378.08 108.55 378.08C110.11 378.08 110.41 378.46 110.41 379.54V380.56H108.07C106.09 380.56 105.23 381.32 105.23 383.3C105.23 384.98 105.99 386.2 107.77 386.2C108.75 386.2 109.79 385.92 110.67 385.34L110.85 386H112.85V379.58ZM110.41 383.76C109.95 384.02 109.29 384.26 108.57 384.26C107.81 384.26 107.59 383.96 107.59 383.28C107.59 382.54 107.81 382.32 108.61 382.32H110.41V383.76ZM123.655 386V378.94C123.655 377.2 123.075 376.06 121.455 376.06C120.315 376.06 118.775 376.48 117.555 377.08L117.315 376.26H115.455V386H117.895V379.24C118.775 378.78 119.835 378.42 120.435 378.42C120.995 378.42 121.215 378.68 121.215 379.2V386H123.655ZM126.253 376.26V383.32C126.253 385.06 126.833 386.2 128.453 386.2C129.593 386.2 131.133 385.78 132.353 385.18L132.593 386H134.453V376.26H132.013V383.02C131.133 383.48 130.073 383.84 129.473 383.84C128.913 383.84 128.693 383.58 128.693 383.06V376.26H126.253ZM143.112 372.16C142.472 371.98 141.772 371.88 141.012 371.88C138.852 371.88 137.912 372.88 137.912 374.9V376.26H136.352V378.2H137.912V386H140.352V378.2H142.692L142.832 376.26H140.352V375.04C140.352 374.3 140.492 373.88 141.452 373.88C141.852 373.88 142.392 373.94 142.852 374.04L143.112 372.16ZM151.542 379.58C151.542 377.14 150.642 376.06 147.582 376.06C146.502 376.06 145.162 376.24 144.242 376.52L144.542 378.38C145.402 378.2 146.362 378.08 147.242 378.08C148.802 378.08 149.102 378.46 149.102 379.54V380.56H146.762C144.782 380.56 143.922 381.32 143.922 383.3C143.922 384.98 144.682 386.2 146.462 386.2C147.442 386.2 148.482 385.92 149.362 385.34L149.542 386H151.542V379.58ZM149.102 383.76C148.642 384.02 147.982 384.26 147.262 384.26C146.502 384.26 146.282 383.96 146.282 383.28C146.282 382.54 146.502 382.32 147.302 382.32H149.102V383.76ZM157.906 386.2C158.706 386.2 159.646 386.06 160.286 385.84L159.986 383.84C159.286 384.02 158.586 384.1 157.966 384.1C156.566 384.1 156.146 383.68 156.146 382.48V379.78C156.146 378.58 156.566 378.16 157.966 378.16C158.446 378.16 159.326 378.24 159.986 378.42L160.286 376.42C159.566 376.18 158.586 376.06 157.906 376.06C154.846 376.06 153.706 377.18 153.706 379.8V382.46C153.706 385.08 154.846 386.2 157.906 386.2ZM167.425 383.96C167.005 384.08 166.565 384.16 166.205 384.16C165.565 384.16 165.325 383.82 165.325 383.3V378.2H167.665L167.825 376.26H165.325V373.5L162.885 373.84V376.26H161.425V378.2H162.885V383.62C162.885 385.36 163.785 386.2 165.565 386.2C166.185 386.2 167.185 386.04 167.705 385.82L167.425 383.96ZM169.534 376.26V383.32C169.534 385.06 170.114 386.2 171.734 386.2C172.874 386.2 174.414 385.78 175.634 385.18L175.874 386H177.734V376.26H175.294V383.02C174.414 383.48 173.354 383.84 172.754 383.84C172.194 383.84 171.974 383.58 171.974 383.06V376.26H169.534ZM185.313 376.06C184.453 376.3 183.293 376.98 182.753 377.34L182.593 376.26H180.533V386H182.973V379.72C183.853 379.16 184.613 378.72 185.553 378.3L185.313 376.06ZM189.633 386V376.26H187.193V386H189.633ZM189.633 374.88V372.06H187.193V374.88H189.633ZM200.627 386V378.94C200.627 377.2 200.047 376.06 198.427 376.06C197.287 376.06 195.747 376.48 194.527 377.08L194.287 376.26H192.427V386H194.867V379.24C195.747 378.78 196.807 378.42 197.407 378.42C197.967 378.42 198.187 378.68 198.187 379.2V386H200.627ZM206.646 383.4C209.366 383.4 210.566 382.2 210.566 380.22V379.3C210.566 378.74 210.446 378.2 210.226 377.78C210.566 377.68 210.966 377.58 211.306 377.48V376.26H208.306C207.826 376.14 207.306 376.06 206.646 376.06C203.826 376.06 202.766 377.28 202.726 379.3V380.22C202.726 381.4 203.146 382.3 204.046 382.84C203.566 383.18 203.026 383.7 203.026 384.5C203.026 385.74 203.566 386.2 204.946 386.36C206.186 386.5 206.646 386.56 207.766 386.68C208.506 386.76 208.686 386.86 208.686 387.46C208.686 388.1 208.306 388.24 206.366 388.24C205.226 388.24 204.126 388.08 203.086 387.82L202.786 389.64C203.886 389.98 205.426 390.14 206.546 390.14C210.186 390.14 210.946 389.32 210.946 387.24C210.946 385.84 210.446 385.06 208.866 384.88C207.726 384.76 207.126 384.7 206.046 384.58C205.666 384.54 205.506 384.42 205.506 384.16C205.506 383.86 205.766 383.58 206.086 383.38C206.266 383.4 206.446 383.4 206.646 383.4ZM208.286 379.38V380.12C208.286 381.06 207.806 381.44 206.646 381.44C205.506 381.44 205.026 381.08 205.026 380.12V379.38C205.026 378.46 205.446 378.02 206.646 378.02C207.866 378.02 208.286 378.46 208.286 379.38ZM228.11 380.38V378.32H221.39C220.37 378.32 220.01 377.8 220.01 377V375.8C220.01 374.94 220.43 374.56 221.67 374.56C222.85 374.56 224.29 374.66 225.51 374.88L225.73 372.88C224.45 372.6 223.09 372.48 221.77 372.48C218.59 372.48 217.55 373.76 217.55 375.7V376.74C217.55 377.76 217.87 378.64 218.93 379.16C217.77 379.58 217.31 380.56 217.31 381.8V382.92C217.31 384.88 218.35 386.2 221.53 386.2C223.01 386.2 224.77 386 226.17 385.54V380.38H228.11ZM221.59 384.18C220.13 384.18 219.77 383.7 219.77 382.66V381.82C219.77 380.82 220.41 380.38 221.59 380.38H223.85V384C223.09 384.14 222.19 384.18 221.59 384.18ZM242.995 386H245.635L241.435 372.68H237.915L233.715 386H236.355L237.195 383.24H242.135L242.995 386ZM239.675 374.76L241.495 381.06H237.815L239.675 374.76ZM254.085 383.16C254.085 381.16 253.825 380.8 251.105 380.08C249.785 379.74 249.725 379.68 249.725 378.9C249.725 378.3 249.905 378.06 250.965 378.06C251.725 378.06 252.905 378.2 253.645 378.34L253.885 376.4C253.045 376.18 251.865 376.06 250.965 376.06C248.185 376.06 247.325 376.92 247.325 378.88C247.325 380.76 247.605 381.36 249.985 381.94C251.565 382.32 251.685 382.62 251.685 383.22C251.685 383.96 251.525 384.2 250.445 384.2C249.445 384.2 248.365 384.02 247.545 383.78L247.205 385.64C248.105 385.96 249.525 386.2 250.565 386.2C253.505 386.2 254.085 385.04 254.085 383.16ZM263.03 383.16C263.03 381.16 262.77 380.8 260.05 380.08C258.73 379.74 258.67 379.68 258.67 378.9C258.67 378.3 258.85 378.06 259.91 378.06C260.67 378.06 261.85 378.2 262.59 378.34L262.83 376.4C261.99 376.18 260.81 376.06 259.91 376.06C257.13 376.06 256.27 376.92 256.27 378.88C256.27 380.76 256.55 381.36 258.93 381.94C260.51 382.32 260.63 382.62 260.63 383.22C260.63 383.96 260.47 384.2 259.39 384.2C258.39 384.2 257.31 384.02 256.49 383.78L256.15 385.64C257.05 385.96 258.47 386.2 259.51 386.2C262.45 386.2 263.03 385.04 263.03 383.16ZM267.435 382.56V382.06H272.855V379.98C272.855 377.88 272.155 376.06 269.035 376.06C265.915 376.06 264.995 377.8 264.995 379.86V382.44C264.995 384.78 266.055 386.2 269.115 386.2C270.275 386.2 271.595 386 272.695 385.58L272.315 383.74C271.255 384.06 270.275 384.2 269.335 384.2C267.855 384.2 267.435 383.74 267.435 382.56ZM267.435 379.62C267.435 378.7 267.855 378.06 269.055 378.06C270.255 378.06 270.535 378.7 270.535 379.62V380.1H267.435V379.62ZM283.264 386V379.24C284.024 378.8 285.204 378.42 285.804 378.42C286.364 378.42 286.584 378.68 286.584 379.2V386H289.024V378.94C289.024 377.2 288.444 376.06 286.824 376.06C285.644 376.06 284.084 376.5 282.904 377.1C282.584 376.44 282.004 376.06 281.064 376.06C279.924 376.06 278.384 376.48 277.164 377.08L276.924 376.26H275.064V386H277.504V379.24C278.384 378.78 279.444 378.42 280.044 378.42C280.604 378.42 280.824 378.68 280.824 379.2V386H283.264ZM299.984 379.4C299.984 377.34 299.144 376.06 297.044 376.06C295.984 376.06 294.884 376.34 294.164 376.64V371.94L291.724 372.28V385.86C292.944 386.1 294.524 386.2 295.504 386.2C299.264 386.2 299.984 384.62 299.984 382.26V379.4ZM294.164 378.7C294.764 378.42 295.624 378.14 296.304 378.14C297.204 378.14 297.544 378.56 297.544 379.34V382.34C297.544 383.48 297.224 384.12 295.624 384.12C295.104 384.12 294.604 384.1 294.164 384.04V378.7ZM304.731 386V371.94L302.291 372.28V386H304.731ZM315.685 376.26H313.185L310.945 383.66L308.725 376.26H306.225L309.305 386H310.165L308.945 389.94H311.265L312.565 386L315.685 376.26Z" fill="#191A1B"/>
</g>
<path d="M201.051 184.742L192.617 192.906C192.414 193.108 192.145 193.176 191.875 193.176C191.335 193.176 190.863 192.771 190.863 192.164V192.096L191.065 189.937H190.525H183.913H182.699H181.012C180.472 189.937 180 189.465 180 188.925V179.142C180 178.602 180.472 178.13 181.012 178.13H181.349H182.699H183.846H186.41H190.458H190.998L190.795 175.971V175.904C190.795 175.296 191.335 174.892 191.807 174.892C192.077 174.892 192.347 174.959 192.549 175.161L200.983 183.325C201.186 183.528 201.32 183.798 201.32 184.067C201.32 184.27 201.253 184.54 201.051 184.742ZM199.836 184L192.28 176.713L192.414 178.4V178.467C192.414 179.007 191.942 179.48 191.402 179.48H190.525H186.477H183.913H182.699H181.349V188.52H182.699H183.846H190.458H191.335C191.875 188.52 192.347 188.993 192.347 189.533V189.6L192.212 191.287L199.836 184ZM236 179.142V188.858C236 189.398 235.528 189.87 234.988 189.87H233.301H232.154H225.542H225.002L225.205 192.029V192.096C225.205 192.704 224.665 193.108 224.193 193.108C223.923 193.108 223.653 193.041 223.451 192.839L215.084 184.742C214.882 184.54 214.747 184.27 214.747 184C214.747 183.73 214.882 183.46 215.084 183.258L223.518 175.094C223.72 174.892 223.99 174.824 224.26 174.824C224.8 174.824 225.272 175.229 225.272 175.836V175.904L225.07 178.063H225.61H229.658H232.222H233.301H234.651H234.92C235.528 178.13 236 178.602 236 179.142ZM233.301 188.52H234.651V179.48H233.301H232.154H229.59H225.542H224.665C224.125 179.48 223.653 179.007 223.653 178.467V178.4L223.788 176.713L216.164 184L223.72 191.287L223.586 189.6V189.533C223.586 188.993 224.058 188.52 224.598 188.52H225.475H232.087H233.301ZM216.906 199.383C217.108 199.586 217.176 199.855 217.176 200.125C217.176 200.665 216.771 201.137 216.164 201.137H216.096L213.937 200.935V201.475V208.087V209.301V210.988C213.937 211.528 213.465 212 212.925 212H203.142C202.602 212 202.13 211.528 202.13 210.988V210.651V209.301V208.154V205.59V201.542V201.002L199.971 201.205H199.904C199.296 201.205 198.892 200.665 198.892 200.193C198.892 199.923 198.959 199.653 199.161 199.451L207.325 191.017C207.528 190.814 207.798 190.68 208.067 190.68C208.337 190.68 208.607 190.814 208.81 191.017L216.906 199.383ZM203.48 200.598V201.475V205.523V208.087V209.301V210.651H212.52V209.301V208.154V201.542V200.665C212.52 200.125 212.993 199.653 213.533 199.653H213.6L215.287 199.788L208 192.164L200.713 199.72L202.4 199.586H202.467C203.007 199.586 203.48 200.058 203.48 200.598ZM199.161 168.617C198.959 168.414 198.892 168.145 198.892 167.875C198.892 167.335 199.296 166.863 199.904 166.863H199.971L202.13 167.065V166.525V162.477V159.913V158.699V157.349V157.012C202.13 156.472 202.602 156 203.142 156H212.858C213.398 156 213.87 156.472 213.87 157.012V158.699V159.846V166.458V166.998L216.029 166.795H216.096C216.704 166.795 217.108 167.335 217.108 167.807C217.108 168.077 217.041 168.347 216.839 168.549L208.742 177.051C208.54 177.253 208.27 177.388 208 177.388C207.73 177.388 207.46 177.253 207.258 177.051L199.161 168.617ZM212.52 167.402V166.525V159.913V158.699V157.349H203.48V158.699V159.846V162.41V166.458V167.335C203.48 167.875 203.007 168.347 202.467 168.347H202.4L200.713 168.212L208 175.769L215.287 168.212L213.6 168.347H213.533C212.993 168.414 212.52 168.01 212.52 167.402ZM202.737 184C202.737 186.901 205.099 189.263 208 189.263C210.901 189.263 213.263 186.901 213.263 184C213.263 181.099 210.901 178.737 208 178.737C205.099 178.737 202.737 181.099 202.737 184Z" fill="white"/>
</g>
<defs>
<filter id="filter0_d_12857_44734" x="0" y="0" width="416" height="448" filterUnits="userSpaceOnUse" color-interpolation-filters="sRGB">
<feFlood flood-opacity="0" result="BackgroundImageFix"/>
<feColorMatrix in="SourceAlpha" type="matrix" values="0 0 0 0 0 0 0 0 0 0 0 0 0 0 0 0 0 0 127 0" result="hardAlpha"/>
<feOffset dy="8"/>
<feGaussianBlur stdDeviation="12"/>
<feComposite in2="hardAlpha" operator="out"/>
<feColorMatrix type="matrix" values="0 0 0 0 0.0993924 0 0 0 0 0.101302 0 0 0 0 0.104167 0 0 0 0.1 0"/>
<feBlend mode="normal" in2="BackgroundImageFix" result="effect1_dropShadow_12857_44734"/>
<feBlend mode="normal" in="SourceGraphic" in2="effect1_dropShadow_12857_44734" result="shape"/>
</filter>
</defs>
</svg>
