<svg width="416" height="448" viewBox="0 0 416 448" fill="none" xmlns="http://www.w3.org/2000/svg">
<g filter="url(#filter0_d_12857_44732)">
<path d="M344 16H24V416H344L392 216L344 16Z" fill="#252525"/>
<mask id="mask0_12857_44732" style="mask-type:alpha" maskUnits="userSpaceOnUse" x="24" y="16" width="368" height="400">
<path d="M344 16H24V416H344L392 216L344 16Z" fill="#252525"/>
</mask>
<g mask="url(#mask0_12857_44732)">
<rect width="368" height="72" transform="translate(24 344)" fill="white"/>
<path d="M100.22 377.38L100.44 386H103.02L102.42 372.68H99.6L96.16 382.14L92.72 372.68H89.9L89.3 386H91.88L92.1 377.38L94.56 384.28H97.76L100.22 377.38ZM112.85 379.58C112.85 377.14 111.95 376.06 108.89 376.06C107.81 376.06 106.47 376.24 105.55 376.52L105.85 378.38C106.71 378.2 107.67 378.08 108.55 378.08C110.11 378.08 110.41 378.46 110.41 379.54V380.56H108.07C106.09 380.56 105.23 381.32 105.23 383.3C105.23 384.98 105.99 386.2 107.77 386.2C108.75 386.2 109.79 385.92 110.67 385.34L110.85 386H112.85V379.58ZM110.41 383.76C109.95 384.02 109.29 384.26 108.57 384.26C107.81 384.26 107.59 383.96 107.59 383.28C107.59 382.54 107.81 382.32 108.61 382.32H110.41V383.76ZM120.355 383.96C119.935 384.08 119.495 384.16 119.135 384.16C118.495 384.16 118.255 383.82 118.255 383.3V378.2H120.595L120.755 376.26H118.255V373.5L115.815 373.84V376.26H114.355V378.2H115.815V383.62C115.815 385.36 116.715 386.2 118.495 386.2C119.115 386.2 120.115 386.04 120.635 385.82L120.355 383.96ZM124.564 382.56V382.06H129.984V379.98C129.984 377.88 129.284 376.06 126.164 376.06C123.044 376.06 122.124 377.8 122.124 379.86V382.44C122.124 384.78 123.184 386.2 126.244 386.2C127.404 386.2 128.724 386 129.824 385.58L129.444 383.74C128.384 384.06 127.404 384.2 126.464 384.2C124.984 384.2 124.564 383.74 124.564 382.56ZM124.564 379.62C124.564 378.7 124.984 378.06 126.184 378.06C127.384 378.06 127.664 378.7 127.664 379.62V380.1H124.564V379.62ZM136.973 376.06C136.113 376.3 134.953 376.98 134.413 377.34L134.253 376.26H132.193V386H134.633V379.72C135.513 379.16 136.273 378.72 137.213 378.3L136.973 376.06ZM141.293 386V376.26H138.853V386H141.293ZM141.293 374.88V372.06H138.853V374.88H141.293ZM151.308 379.58C151.308 377.14 150.408 376.06 147.348 376.06C146.268 376.06 144.928 376.24 144.007 376.52L144.308 378.38C145.168 378.2 146.128 378.08 147.008 378.08C148.567 378.08 148.868 378.46 148.868 379.54V380.56H146.528C144.548 380.56 143.688 381.32 143.688 383.3C143.688 384.98 144.448 386.2 146.228 386.2C147.208 386.2 148.248 385.92 149.128 385.34L149.308 386H151.308V379.58ZM148.868 383.76C148.408 384.02 147.748 384.26 147.028 384.26C146.268 384.26 146.048 383.96 146.048 383.28C146.048 382.54 146.268 382.32 147.068 382.32H148.868V383.76ZM156.352 386V371.94L153.912 372.28V386H156.352ZM165.686 383.16C165.686 381.16 165.426 380.8 162.706 380.08C161.386 379.74 161.326 379.68 161.326 378.9C161.326 378.3 161.506 378.06 162.566 378.06C163.326 378.06 164.506 378.2 165.246 378.34L165.486 376.4C164.646 376.18 163.466 376.06 162.566 376.06C159.786 376.06 158.926 376.92 158.926 378.88C158.926 380.76 159.206 381.36 161.586 381.94C163.166 382.32 163.286 382.62 163.286 383.22C163.286 383.96 163.126 384.2 162.046 384.2C161.046 384.2 159.966 384.02 159.146 383.78L158.806 385.64C159.706 385.96 161.126 386.2 162.166 386.2C165.106 386.2 165.686 385.04 165.686 383.16ZM172.391 386H180.551V383.78H174.911V380.34H180.111V378.12H174.911V374.9H180.551V372.68H172.391V386ZM184.47 386L186.43 382.98L188.37 386H190.87L187.71 381.1L190.79 376.26H188.35L186.43 379.22L184.49 376.26H182.05L185.13 381.1L181.99 386H184.47ZM200.765 379.44C200.765 377.22 199.725 376.06 197.765 376.06C196.545 376.06 195.545 376.46 194.685 377.08L194.445 376.26H192.505V390.28L194.945 389.94V385.92C195.705 386.08 196.685 386.2 197.545 386.2C199.805 386.2 200.765 384.92 200.765 382.76V379.44ZM194.945 379.02C195.465 378.54 196.325 378.14 197.125 378.14C198.025 378.14 198.325 378.58 198.325 379.38V382.82C198.325 383.7 197.985 384.12 197.105 384.12C196.405 384.12 195.585 384 194.945 383.86V379.02ZM205.17 382.56V382.06H210.59V379.98C210.59 377.88 209.89 376.06 206.77 376.06C203.65 376.06 202.73 377.8 202.73 379.86V382.44C202.73 384.78 203.79 386.2 206.85 386.2C208.01 386.2 209.33 386 210.43 385.58L210.05 383.74C208.99 384.06 208.01 384.2 207.07 384.2C205.59 384.2 205.17 383.74 205.17 382.56ZM205.17 379.62C205.17 378.7 205.59 378.06 206.79 378.06C207.99 378.06 208.27 378.7 208.27 379.62V380.1H205.17V379.62ZM217.578 376.06C216.718 376.3 215.558 376.98 215.018 377.34L214.858 376.26H212.798V386H215.238V379.72C216.118 379.16 216.878 378.72 217.818 378.3L217.578 376.06ZM224.593 383.96C224.173 384.08 223.733 384.16 223.373 384.16C222.733 384.16 222.493 383.82 222.493 383.3V378.2H224.833L224.993 376.26H222.493V373.5L220.053 373.84V376.26H218.593V378.2H220.053V383.62C220.053 385.36 220.953 386.2 222.733 386.2C223.353 386.2 224.353 386.04 224.873 385.82L224.593 383.96ZM229.242 386V376.26H226.802V386H229.242ZM229.242 374.88V372.06H226.802V374.88H229.242ZM238.577 383.16C238.577 381.16 238.317 380.8 235.597 380.08C234.277 379.74 234.217 379.68 234.217 378.9C234.217 378.3 234.397 378.06 235.457 378.06C236.217 378.06 237.397 378.2 238.137 378.34L238.377 376.4C237.537 376.18 236.357 376.06 235.457 376.06C232.677 376.06 231.817 376.92 231.817 378.88C231.817 380.76 232.097 381.36 234.477 381.94C236.057 382.32 236.177 382.62 236.177 383.22C236.177 383.96 236.017 384.2 234.937 384.2C233.937 384.2 232.857 384.02 232.037 383.78L231.697 385.64C232.597 385.96 234.017 386.2 235.057 386.2C237.997 386.2 238.577 385.04 238.577 383.16ZM242.982 382.56V382.06H248.402V379.98C248.402 377.88 247.702 376.06 244.582 376.06C241.462 376.06 240.542 377.8 240.542 379.86V382.44C240.542 384.78 241.602 386.2 244.662 386.2C245.822 386.2 247.142 386 248.242 385.58L247.862 383.74C246.802 384.06 245.822 384.2 244.882 384.2C243.402 384.2 242.982 383.74 242.982 382.56ZM242.982 379.62C242.982 378.7 243.402 378.06 244.602 378.06C245.802 378.06 246.082 378.7 246.082 379.62V380.1H242.982V379.62Z" fill="#191A1B"/>
</g>
<path d="M224.015 166.492H224.954C224.954 175.591 217.634 182.984 208.626 182.984C199.618 182.984 192.298 175.591 192.298 166.492C192.298 157.393 199.618 150 208.626 150C217.634 150 224.954 157.393 224.954 166.492H224.015H223.077C223.077 158.435 216.602 151.99 208.626 151.896C200.65 151.896 194.269 158.435 194.175 166.492C194.175 174.548 200.65 180.993 208.626 181.088C216.602 181.088 222.983 174.548 223.077 166.492H224.015ZM239.123 186.111C239.123 190.282 235.745 193.694 231.616 193.694C227.487 193.694 224.109 190.282 224.109 186.111C224.109 181.941 227.487 178.529 231.616 178.529C235.839 178.529 239.123 181.941 239.123 186.111H240.062H241C241 180.898 236.777 176.633 231.616 176.633C226.455 176.633 222.232 180.898 222.232 186.111C222.232 191.324 226.455 195.589 231.616 195.589C236.777 195.589 241 191.324 241 186.111H240.062H239.123ZM219.793 197.58C219.793 202.603 215.758 206.584 210.878 206.584C205.905 206.584 201.964 202.508 201.964 197.58C201.964 192.556 205.999 188.576 210.878 188.576C215.758 188.481 219.793 192.556 219.793 197.58H220.731H221.669C221.669 191.514 216.79 186.68 210.878 186.68C204.873 186.68 200.087 191.609 200.087 197.58C200.087 203.646 204.966 208.479 210.878 208.479C216.884 208.479 221.669 203.551 221.669 197.58H220.731H219.793ZM195.77 189.049C195.77 194.547 191.36 199.001 185.824 199.096C180.381 199.001 175.971 194.547 175.971 189.049C175.971 183.552 180.381 179.098 185.917 179.003C191.36 179.003 195.77 183.552 195.77 189.049H196.709H197.647C197.647 182.51 192.392 177.107 185.824 177.107C179.349 177.107 174 182.415 174 189.049C174 195.589 179.255 200.992 185.824 200.992C192.298 200.992 197.647 195.684 197.647 189.049H196.709H195.77ZM198.867 211.418C198.867 214.545 196.333 217.104 193.237 217.104C190.14 217.104 187.606 214.545 187.606 211.418C187.606 208.29 190.14 205.731 193.237 205.731C196.333 205.731 198.867 208.29 198.867 211.418H199.805H200.744C200.744 207.247 197.366 203.835 193.237 203.835C189.108 203.835 185.73 207.247 185.73 211.418C185.73 215.588 189.108 219 193.237 219C197.366 219 200.744 215.588 200.744 211.418H199.805H198.867ZM236.496 206.868C236.496 209.522 234.338 211.702 231.71 211.702C229.083 211.702 226.924 209.522 226.924 206.868C226.924 204.214 229.083 202.034 231.71 202.034C234.338 202.034 236.496 204.214 236.496 206.868H237.434H238.373C238.373 203.172 235.37 200.139 231.71 200.139C228.05 200.139 225.048 203.172 225.048 206.868C225.048 210.565 228.05 213.598 231.71 213.598C235.37 213.598 238.373 210.565 238.373 206.868H237.434H236.496Z" fill="white"/>
</g>
<defs>
<filter id="filter0_d_12857_44732" x="0" y="0" width="416" height="448" filterUnits="userSpaceOnUse" color-interpolation-filters="sRGB">
<feFlood flood-opacity="0" result="BackgroundImageFix"/>
<feColorMatrix in="SourceAlpha" type="matrix" values="0 0 0 0 0 0 0 0 0 0 0 0 0 0 0 0 0 0 127 0" result="hardAlpha"/>
<feOffset dy="8"/>
<feGaussianBlur stdDeviation="12"/>
<feComposite in2="hardAlpha" operator="out"/>
<feColorMatrix type="matrix" values="0 0 0 0 0.0993924 0 0 0 0 0.101302 0 0 0 0 0.104167 0 0 0 0.1 0"/>
<feBlend mode="normal" in2="BackgroundImageFix" result="effect1_dropShadow_12857_44732"/>
<feBlend mode="normal" in="SourceGraphic" in2="effect1_dropShadow_12857_44732" result="shape"/>
</filter>
</defs>
</svg>
