<svg width="416" height="448" viewBox="0 0 416 448" fill="none" xmlns="http://www.w3.org/2000/svg">
<g filter="url(#filter0_d_12857_44733)">
<path d="M344 16H24V416H344L392 216L344 16Z" fill="#F2B760"/>
<mask id="mask0_12857_44733" style="mask-type:alpha" maskUnits="userSpaceOnUse" x="24" y="16" width="368" height="400">
<path d="M344 16H24V416H344L392 216L344 16Z" fill="#F2B760"/>
</mask>
<g mask="url(#mask0_12857_44733)">
<rect width="368" height="72" transform="translate(24 344)" fill="white"/>
<path d="M89.2 382.34C89.2 384.78 90.62 386.2 93.94 386.2C95.18 386.2 96.46 386.04 97.56 385.76L97.28 383.58C96.2 383.78 94.94 383.92 94.02 383.92C92.28 383.92 91.72 383.32 91.72 381.9V376.78C91.72 375.36 92.28 374.76 94.02 374.76C94.94 374.76 96.2 374.9 97.28 375.1L97.56 372.92C96.46 372.64 95.18 372.48 93.94 372.48C90.62 372.48 89.2 373.9 89.2 376.34V382.34ZM107.713 382.36V379.9C107.713 377.9 106.813 376.06 103.473 376.06C100.133 376.06 99.2334 377.9 99.2334 379.9V382.36C99.2334 384.36 100.133 386.2 103.473 386.2C106.813 386.2 107.713 384.36 107.713 382.36ZM105.273 379.82V382.44C105.273 383.54 104.773 384.12 103.473 384.12C102.173 384.12 101.673 383.54 101.673 382.44V379.82C101.673 378.72 102.173 378.14 103.473 378.14C104.773 378.14 105.273 378.72 105.273 379.82ZM118.264 386V379.24C119.024 378.8 120.204 378.42 120.804 378.42C121.364 378.42 121.584 378.68 121.584 379.2V386H124.024V378.94C124.024 377.2 123.444 376.06 121.824 376.06C120.644 376.06 119.084 376.5 117.904 377.1C117.584 376.44 117.004 376.06 116.064 376.06C114.924 376.06 113.384 376.48 112.164 377.08L111.924 376.26H110.064V386H112.504V379.24C113.384 378.78 114.444 378.42 115.044 378.42C115.604 378.42 115.824 378.68 115.824 379.2V386H118.264ZM134.984 379.44C134.984 377.22 133.944 376.06 131.984 376.06C130.764 376.06 129.764 376.46 128.904 377.08L128.664 376.26H126.724V390.28L129.164 389.94V385.92C129.924 386.08 130.904 386.2 131.764 386.2C134.024 386.2 134.984 384.92 134.984 382.76V379.44ZM129.164 379.02C129.684 378.54 130.544 378.14 131.344 378.14C132.244 378.14 132.544 378.58 132.544 379.38V382.82C132.544 383.7 132.204 384.12 131.324 384.12C130.624 384.12 129.804 384 129.164 383.86V379.02ZM139.828 386V371.94L137.388 372.28V386H139.828ZM144.623 382.56V382.06H150.043V379.98C150.043 377.88 149.343 376.06 146.223 376.06C143.103 376.06 142.183 377.8 142.183 379.86V382.44C142.183 384.78 143.243 386.2 146.303 386.2C147.463 386.2 148.783 386 149.883 385.58L149.503 383.74C148.443 384.06 147.463 384.2 146.523 384.2C145.043 384.2 144.623 383.74 144.623 382.56ZM144.623 379.62C144.623 378.7 145.043 378.06 146.243 378.06C147.443 378.06 147.723 378.7 147.723 379.62V380.1H144.623V379.62ZM153.669 386L155.629 382.98L157.569 386H160.069L156.909 381.1L159.989 376.26H157.549L155.629 379.22L153.689 376.26H151.249L154.329 381.1L151.189 386H153.669ZM165.704 382.34C165.704 384.78 167.124 386.2 170.444 386.2C171.684 386.2 172.964 386.04 174.064 385.76L173.784 383.58C172.704 383.78 171.444 383.92 170.524 383.92C168.784 383.92 168.224 383.32 168.224 381.9V376.78C168.224 375.36 168.784 374.76 170.524 374.76C171.444 374.76 172.704 374.9 173.784 375.1L174.064 372.92C172.964 372.64 171.684 372.48 170.444 372.48C167.124 372.48 165.704 373.9 165.704 376.34V382.34ZM184.217 382.36V379.9C184.217 377.9 183.317 376.06 179.977 376.06C176.637 376.06 175.737 377.9 175.737 379.9V382.36C175.737 384.36 176.637 386.2 179.977 386.2C183.317 386.2 184.217 384.36 184.217 382.36ZM181.777 379.82V382.44C181.777 383.54 181.277 384.12 179.977 384.12C178.677 384.12 178.177 383.54 178.177 382.44V379.82C178.177 378.72 178.677 378.14 179.977 378.14C181.277 378.14 181.777 378.72 181.777 379.82ZM194.768 386V379.24C195.528 378.8 196.708 378.42 197.308 378.42C197.868 378.42 198.088 378.68 198.088 379.2V386H200.528V378.94C200.528 377.2 199.948 376.06 198.328 376.06C197.148 376.06 195.588 376.5 194.408 377.1C194.088 376.44 193.508 376.06 192.568 376.06C191.428 376.06 189.888 376.48 188.668 377.08L188.428 376.26H186.568V386H189.008V379.24C189.888 378.78 190.948 378.42 191.548 378.42C192.108 378.42 192.328 378.68 192.328 379.2V386H194.768ZM211.488 379.44C211.488 377.22 210.448 376.06 208.488 376.06C207.268 376.06 206.268 376.46 205.408 377.08L205.168 376.26H203.228V390.28L205.668 389.94V385.92C206.428 386.08 207.408 386.2 208.268 386.2C210.528 386.2 211.488 384.92 211.488 382.76V379.44ZM205.668 379.02C206.188 378.54 207.048 378.14 207.848 378.14C208.748 378.14 209.048 378.58 209.048 379.38V382.82C209.048 383.7 208.708 384.12 207.828 384.12C207.128 384.12 206.308 384 205.668 383.86V379.02ZM221.932 382.36V379.9C221.932 377.9 221.032 376.06 217.692 376.06C214.352 376.06 213.452 377.9 213.452 379.9V382.36C213.452 384.36 214.352 386.2 217.692 386.2C221.032 386.2 221.932 384.36 221.932 382.36ZM219.492 379.82V382.44C219.492 383.54 218.992 384.12 217.692 384.12C216.392 384.12 215.892 383.54 215.892 382.44V379.82C215.892 378.72 216.392 378.14 217.692 378.14C218.992 378.14 219.492 378.72 219.492 379.82ZM232.483 386V378.94C232.483 377.2 231.903 376.06 230.283 376.06C229.143 376.06 227.603 376.48 226.383 377.08L226.143 376.26H224.283V386H226.723V379.24C227.603 378.78 228.663 378.42 229.263 378.42C229.823 378.42 230.043 378.68 230.043 379.2V386H232.483ZM237.181 382.56V382.06H242.601V379.98C242.601 377.88 241.901 376.06 238.781 376.06C235.661 376.06 234.741 377.8 234.741 379.86V382.44C234.741 384.78 235.801 386.2 238.861 386.2C240.021 386.2 241.341 386 242.441 385.58L242.061 383.74C241.001 384.06 240.021 384.2 239.081 384.2C237.601 384.2 237.181 383.74 237.181 382.56ZM237.181 379.62C237.181 378.7 237.601 378.06 238.801 378.06C240.001 378.06 240.281 378.7 240.281 379.62V380.1H237.181V379.62ZM253.01 386V378.94C253.01 377.2 252.43 376.06 250.81 376.06C249.67 376.06 248.13 376.48 246.91 377.08L246.67 376.26H244.81V386H247.25V379.24C248.13 378.78 249.19 378.42 249.79 378.42C250.35 378.42 250.57 378.68 250.57 379.2V386H253.01ZM260.609 383.96C260.189 384.08 259.749 384.16 259.389 384.16C258.749 384.16 258.509 383.82 258.509 383.3V378.2H260.849L261.009 376.26H258.509V373.5L256.069 373.84V376.26H254.609V378.2H256.069V383.62C256.069 385.36 256.969 386.2 258.749 386.2C259.369 386.2 260.369 386.04 260.889 385.82L260.609 383.96ZM269.358 383.16C269.358 381.16 269.098 380.8 266.378 380.08C265.058 379.74 264.998 379.68 264.998 378.9C264.998 378.3 265.178 378.06 266.238 378.06C266.998 378.06 268.178 378.2 268.918 378.34L269.158 376.4C268.318 376.18 267.138 376.06 266.238 376.06C263.458 376.06 262.598 376.92 262.598 378.88C262.598 380.76 262.878 381.36 265.258 381.94C266.838 382.32 266.958 382.62 266.958 383.22C266.958 383.96 266.798 384.2 265.718 384.2C264.718 384.2 263.638 384.02 262.818 383.78L262.478 385.64C263.378 385.96 264.798 386.2 265.838 386.2C268.778 386.2 269.358 385.04 269.358 383.16Z" fill="#191A1B"/>
</g>
<path d="M225.014 159.579L222.917 157.523C222.269 156.898 222.17 156.593 221.293 157.096C220.477 157.546 219.813 158.079 219.135 158.772C218.464 159.465 218.754 159.64 219.173 160.379C219.676 161.255 220.141 162.07 220.637 162.931C220.172 163.555 219.791 164.218 219.501 164.911C218.525 164.911 217.541 164.919 216.565 164.927C215.665 164.934 215.376 164.797 215.116 165.764C214.872 166.671 214.766 167.509 214.781 168.468C214.796 169.443 215.139 169.36 215.955 169.588C216.916 169.847 217.831 170.091 218.792 170.358C218.898 171.104 219.104 171.85 219.386 172.574C218.7 173.26 218.006 173.968 217.32 174.654C216.702 175.293 216.39 175.4 216.893 176.276C217.351 177.083 217.869 177.754 218.571 178.416C219.264 179.087 219.44 178.805 220.179 178.386L222.719 176.931C223.344 177.388 224.015 177.777 224.717 178.074L224.732 180.999C224.732 181.837 224.572 182.149 225.502 182.415C226.44 182.682 227.279 182.804 228.209 182.796C229.208 182.796 229.154 182.476 229.391 181.616L230.169 178.79C230.923 178.675 231.671 178.485 232.38 178.196L234.454 180.252C235.064 180.854 235.163 181.181 236.01 180.702C236.856 180.237 237.527 179.727 238.19 179.064C238.9 178.348 238.625 178.165 238.19 177.396L236.742 174.852C237.214 174.235 237.596 173.557 237.901 172.864L240.821 172.848C241.66 172.848 241.973 173.008 242.239 172.079C242.499 171.15 242.621 170.312 242.613 169.383C242.605 168.369 242.293 168.43 241.416 168.194L238.61 167.425C238.488 166.671 238.305 165.917 238.007 165.193L240.066 163.129C240.669 162.52 241.004 162.42 240.524 161.583C240.051 160.729 239.548 160.059 238.877 159.404C238.152 158.696 237.984 158.962 237.207 159.404L234.668 160.851C234.042 160.387 233.371 160.006 232.677 159.709L232.654 156.791C232.654 155.885 232.784 155.596 231.808 155.337C230.916 155.093 230.069 154.986 229.101 155.001C228.133 155.024 228.209 155.359 227.98 156.182L227.21 158.993C226.463 159.107 225.715 159.305 224.999 159.587M225.548 164.82C227.797 163.091 231.03 163.51 232.761 165.772C234.484 168.011 234.065 171.249 231.808 172.978C229.551 174.707 226.318 174.28 224.595 172.033C222.856 169.779 223.283 166.549 225.54 164.82M195.672 181.928C190.99 182.796 187.902 187.298 188.771 191.983C189.648 196.659 194.147 199.744 198.829 198.868C203.511 198 206.599 193.498 205.73 188.814C204.853 184.137 200.346 181.052 195.664 181.928M198.821 173.709C200.117 173.831 201.376 174.098 202.58 174.501L205.874 170.875C206.828 169.817 206.973 169.261 208.429 169.969C209.885 170.677 211.06 171.47 212.226 172.521C213.469 173.656 213.05 173.976 212.371 175.324L210.183 179.704C210.999 180.679 211.708 181.753 212.287 182.918L217.183 182.69C218.677 182.621 219.15 182.362 219.684 183.962C220.179 185.447 220.423 186.833 220.484 188.456C220.545 190.071 219.981 189.972 218.624 190.421L213.98 191.952C213.858 193.247 213.584 194.519 213.179 195.723L216.794 199.021C217.915 200.034 218.426 200.179 217.671 201.687C216.969 203.088 216.153 204.246 215.055 205.427C213.95 206.615 213.614 206.143 212.341 205.511L207.979 203.317C206.995 204.132 205.913 204.848 204.738 205.419L204.967 210.302C205.036 211.795 205.295 212.267 203.694 212.8C202.207 213.295 200.811 213.539 199.195 213.6C197.578 213.661 197.677 213.09 197.227 211.741L195.695 207.102C194.398 206.981 193.14 206.706 191.928 206.303L188.618 209.928C187.604 211.041 187.459 211.551 185.95 210.797C184.554 210.096 183.395 209.296 182.206 208.176C181.016 207.072 181.489 206.737 182.122 205.472L184.333 201.093C183.517 200.118 182.808 199.036 182.229 197.871L177.325 198.114C175.907 198.183 175.412 198.48 174.885 196.949C174.352 195.41 174.077 194.032 174.008 192.47C173.925 190.787 174.458 190.863 175.884 190.383C177.44 189.857 178.995 189.339 180.551 188.829C180.681 187.542 180.94 186.285 181.352 185.081C180.116 183.962 178.95 182.903 177.707 181.783C176.654 180.823 176.098 180.686 176.807 179.224C177.516 177.769 178.301 176.596 179.361 175.438C180.498 174.197 180.818 174.615 182.16 175.293C183.632 176.025 185.096 176.748 186.56 177.48V177.495C187.536 176.68 188.611 175.971 189.778 175.392C189.694 173.724 189.625 172.148 189.534 170.479C189.465 169.063 189.168 168.568 190.7 168.042C192.24 167.509 193.628 167.235 195.184 167.166C196.869 167.082 196.793 167.615 197.273 169.032L198.829 173.694L198.821 173.709Z" stroke="white" stroke-width="2" stroke-miterlimit="10"/>
</g>
<defs>
<filter id="filter0_d_12857_44733" x="0" y="0" width="416" height="448" filterUnits="userSpaceOnUse" color-interpolation-filters="sRGB">
<feFlood flood-opacity="0" result="BackgroundImageFix"/>
<feColorMatrix in="SourceAlpha" type="matrix" values="0 0 0 0 0 0 0 0 0 0 0 0 0 0 0 0 0 0 127 0" result="hardAlpha"/>
<feOffset dy="8"/>
<feGaussianBlur stdDeviation="12"/>
<feComposite in2="hardAlpha" operator="out"/>
<feColorMatrix type="matrix" values="0 0 0 0 0.0993924 0 0 0 0 0.101302 0 0 0 0 0.104167 0 0 0 0.1 0"/>
<feBlend mode="normal" in2="BackgroundImageFix" result="effect1_dropShadow_12857_44733"/>
<feBlend mode="normal" in="SourceGraphic" in2="effect1_dropShadow_12857_44733" result="shape"/>
</filter>
</defs>
</svg>
