<svg width="1257" height="665" viewBox="0 0 1257 665" fill="none" xmlns="http://www.w3.org/2000/svg">
<rect width="1257" height="665" fill="#D9D9D9"/>
<path d="M298.031 365.382C297.152 365.382 296.306 365.219 295.492 364.894C294.711 364.568 294.027 364.112 293.441 363.526C292.855 362.94 292.383 362.273 292.025 361.524C291.7 360.743 291.537 359.913 291.537 359.034V301.563C291.537 300.685 291.7 299.854 292.025 299.073C292.383 298.292 292.855 297.625 293.441 297.071C294.027 296.485 294.711 296.03 295.492 295.704C296.306 295.346 297.152 295.167 298.031 295.167H315.414C321.729 295.167 327.23 295.965 331.918 297.56C336.605 299.122 340.495 301.417 343.588 304.444C346.713 307.439 349.04 311.134 350.57 315.528C352.1 319.923 352.865 324.936 352.865 330.567C352.865 336.199 352.019 341.179 350.326 345.509C348.666 349.838 346.257 353.484 343.099 356.446C339.942 359.376 336.068 361.606 331.478 363.136C326.889 364.633 321.696 365.382 315.902 365.382H298.031ZM304.525 356.446H315.56C319.792 356.446 323.389 355.86 326.351 354.688C329.346 353.484 331.788 351.759 333.676 349.513C335.564 347.267 336.931 344.532 337.777 341.31C338.656 338.087 339.096 334.425 339.096 330.323C339.096 325.799 338.542 321.892 337.435 318.604C336.329 315.317 334.701 312.599 332.553 310.45C330.404 308.302 327.751 306.723 324.594 305.714C321.436 304.672 317.823 304.151 313.754 304.151H304.525V356.446ZM373.178 365.382C372.331 365.382 371.517 365.219 370.736 364.894C369.987 364.535 369.32 364.08 368.734 363.526C368.148 362.94 367.676 362.273 367.318 361.524C366.96 360.743 366.781 359.929 366.781 359.083V301.466C366.781 300.652 366.928 299.871 367.221 299.122C367.546 298.341 367.986 297.657 368.539 297.071C369.125 296.485 369.792 296.03 370.541 295.704C371.29 295.346 372.103 295.167 372.982 295.167H408.529C409.343 295.167 410.043 295.313 410.629 295.606C411.247 295.867 411.752 296.225 412.142 296.681C412.566 297.136 412.875 297.657 413.07 298.243C413.265 298.797 413.363 299.382 413.363 300.001C413.363 300.587 413.265 301.173 413.07 301.759C412.875 302.345 412.566 302.866 412.142 303.321C411.752 303.777 411.247 304.151 410.629 304.444C410.043 304.705 409.343 304.835 408.529 304.835H379.525V324.61H406.674C407.487 324.61 408.204 324.757 408.822 325.05C409.441 325.31 409.945 325.668 410.336 326.124C410.759 326.58 411.068 327.101 411.264 327.687C411.459 328.24 411.556 328.826 411.556 329.444C411.556 330.03 411.443 330.616 411.215 331.202C411.019 331.788 410.71 332.309 410.287 332.765C409.896 333.22 409.392 333.595 408.773 333.888C408.187 334.148 407.487 334.278 406.674 334.278H379.525V355.714H409.603C410.417 355.714 411.117 355.86 411.703 356.153C412.321 356.414 412.826 356.772 413.217 357.228C413.64 357.683 413.949 358.204 414.144 358.79C414.34 359.343 414.437 359.929 414.437 360.548C414.437 361.134 414.34 361.72 414.144 362.306C413.949 362.892 413.64 363.412 413.217 363.868C412.826 364.324 412.321 364.698 411.703 364.991C411.117 365.252 410.417 365.382 409.603 365.382H373.178ZM468.832 349.464L488.607 304.688C489.356 302.833 490.105 301.303 490.853 300.099C491.602 298.862 492.4 297.885 493.246 297.169C494.092 296.42 495.004 295.899 495.98 295.606C496.989 295.313 498.129 295.167 499.398 295.167C500.635 295.167 501.807 295.362 502.914 295.753C504.053 296.144 505.046 296.762 505.892 297.608C506.771 298.455 507.455 299.545 507.943 300.88C508.464 302.215 508.724 303.826 508.724 305.714V359.718C508.724 360.662 508.562 361.492 508.236 362.208C507.943 362.892 507.536 363.478 507.015 363.966C506.495 364.422 505.892 364.78 505.209 365.04C504.558 365.268 503.89 365.382 503.207 365.382C502.523 365.382 501.856 365.268 501.205 365.04C500.586 364.78 500.017 364.422 499.496 363.966C498.975 363.478 498.552 362.892 498.226 362.208C497.933 361.492 497.787 360.662 497.787 359.718V307.765L476.156 357.423C475.831 358.334 475.391 359.132 474.838 359.815C474.317 360.499 473.715 361.085 473.031 361.573C472.348 362.029 471.615 362.387 470.834 362.647C470.085 362.875 469.32 362.989 468.539 362.989C467.042 362.989 465.609 362.55 464.242 361.671C462.907 360.759 461.898 359.343 461.215 357.423L439.633 308.058V359.718C439.633 360.662 439.47 361.492 439.144 362.208C438.851 362.892 438.445 363.478 437.924 363.966C437.403 364.422 436.817 364.78 436.166 365.04C435.515 365.268 434.848 365.382 434.164 365.382C433.48 365.382 432.813 365.268 432.162 365.04C431.511 364.78 430.925 364.422 430.404 363.966C429.916 363.478 429.509 362.892 429.183 362.208C428.89 361.492 428.744 360.662 428.744 359.718V305.714C428.744 303.826 428.988 302.215 429.476 300.88C429.997 299.545 430.697 298.455 431.576 297.608C432.455 296.762 433.464 296.144 434.603 295.753C435.743 295.362 436.947 295.167 438.217 295.167C439.486 295.167 440.625 295.33 441.635 295.655C442.644 295.948 443.571 296.469 444.418 297.218C445.297 297.934 446.111 298.91 446.859 300.147C447.608 301.384 448.357 302.931 449.105 304.786L468.539 349.464H468.832ZM536.801 330.323C536.801 334.229 537.175 337.843 537.924 341.163C538.705 344.451 539.909 347.299 541.537 349.708C543.165 352.084 545.232 353.956 547.738 355.323C550.245 356.658 553.239 357.325 556.723 357.325C560.206 357.325 563.2 356.658 565.707 355.323C568.213 353.956 570.28 352.084 571.908 349.708C573.536 347.299 574.74 344.451 575.521 341.163C576.303 337.843 576.693 334.229 576.693 330.323C576.693 326.45 576.303 322.869 575.521 319.581C574.773 316.261 573.584 313.396 571.957 310.987C570.329 308.578 568.246 306.69 565.707 305.323C563.2 303.956 560.206 303.272 556.723 303.272C553.239 303.272 550.228 303.956 547.689 305.323C545.183 306.69 543.116 308.578 541.488 310.987C539.893 313.396 538.705 316.261 537.924 319.581C537.175 322.869 536.801 326.45 536.801 330.323ZM522.982 330.323C522.982 324.854 523.715 319.874 525.18 315.382C526.644 310.857 528.793 306.983 531.625 303.761C534.489 300.538 538.021 298.048 542.221 296.29C546.42 294.5 551.254 293.604 556.723 293.604C562.224 293.604 567.074 294.5 571.273 296.29C575.473 298.048 578.988 300.538 581.82 303.761C584.685 306.983 586.833 310.857 588.265 315.382C589.73 319.874 590.463 324.854 590.463 330.323C590.463 335.792 589.73 340.772 588.265 345.265C586.833 349.757 584.685 353.614 581.82 356.837C578.988 360.06 575.473 362.566 571.273 364.356C567.074 366.114 562.224 366.993 556.723 366.993C551.254 366.993 546.42 366.114 542.221 364.356C538.021 362.566 534.489 360.06 531.625 356.837C528.793 353.614 526.644 349.757 525.18 345.265C523.715 340.772 522.982 335.792 522.982 330.323ZM647.64 337.013V359.132C647.64 360.174 647.445 361.101 647.055 361.915C646.696 362.696 646.208 363.347 645.59 363.868C644.971 364.389 644.255 364.78 643.441 365.04C642.66 365.3 641.862 365.431 641.049 365.431C640.235 365.431 639.437 365.3 638.656 365.04C637.875 364.78 637.175 364.389 636.556 363.868C635.938 363.347 635.433 362.696 635.043 361.915C634.685 361.101 634.506 360.174 634.506 359.132V301.661C634.506 300.782 634.668 299.952 634.994 299.171C635.352 298.357 635.824 297.657 636.41 297.071C637.028 296.485 637.728 296.03 638.51 295.704C639.323 295.346 640.186 295.167 641.098 295.167H660.873C664.519 295.167 667.986 295.541 671.273 296.29C674.594 297.039 677.491 298.243 679.965 299.903C682.471 301.563 684.457 303.712 685.922 306.349C687.387 308.985 688.119 312.208 688.119 316.017C688.119 319.89 687.354 323.162 685.824 325.831C684.327 328.5 682.276 330.665 679.672 332.325C677.1 333.985 674.089 335.19 670.639 335.938C667.188 336.655 663.542 337.013 659.701 337.013H647.64ZM659.115 328.028C661.361 328.028 663.445 327.833 665.365 327.442C667.318 327.052 668.995 326.401 670.394 325.489C671.827 324.545 672.95 323.308 673.764 321.778C674.577 320.216 674.984 318.295 674.984 316.017C674.984 313.738 674.577 311.85 673.764 310.353C672.982 308.823 671.892 307.602 670.492 306.69C669.125 305.779 667.497 305.128 665.609 304.737C663.754 304.347 661.752 304.151 659.603 304.151H647.64V328.028H659.115ZM710.238 330.323C710.238 334.229 710.613 337.843 711.361 341.163C712.142 344.451 713.347 347.299 714.974 349.708C716.602 352.084 718.669 353.956 721.176 355.323C723.682 356.658 726.677 357.325 730.16 357.325C733.643 357.325 736.638 356.658 739.144 355.323C741.651 353.956 743.718 352.084 745.346 349.708C746.973 347.299 748.178 344.451 748.959 341.163C749.74 337.843 750.131 334.229 750.131 330.323C750.131 326.45 749.74 322.869 748.959 319.581C748.21 316.261 747.022 313.396 745.394 310.987C743.767 308.578 741.683 306.69 739.144 305.323C736.638 303.956 733.643 303.272 730.16 303.272C726.677 303.272 723.666 303.956 721.127 305.323C718.62 306.69 716.553 308.578 714.926 310.987C713.331 313.396 712.142 316.261 711.361 319.581C710.613 322.869 710.238 326.45 710.238 330.323ZM696.42 330.323C696.42 324.854 697.152 319.874 698.617 315.382C700.082 310.857 702.23 306.983 705.062 303.761C707.927 300.538 711.459 298.048 715.658 296.29C719.857 294.5 724.691 293.604 730.16 293.604C735.661 293.604 740.512 294.5 744.711 296.29C748.91 298.048 752.426 300.538 755.258 303.761C758.122 306.983 760.271 310.857 761.703 315.382C763.168 319.874 763.9 324.854 763.9 330.323C763.9 335.792 763.168 340.772 761.703 345.265C760.271 349.757 758.122 353.614 755.258 356.837C752.426 360.06 748.91 362.566 744.711 364.356C740.512 366.114 735.661 366.993 730.16 366.993C724.691 366.993 719.857 366.114 715.658 364.356C711.459 362.566 707.927 360.06 705.062 356.837C702.23 353.614 700.082 349.757 698.617 345.265C697.152 340.772 696.42 335.792 696.42 330.323ZM791 337.013V359.132C791 360.174 790.805 361.101 790.414 361.915C790.056 362.696 789.568 363.347 788.949 363.868C788.331 364.389 787.614 364.78 786.801 365.04C786.019 365.3 785.222 365.431 784.408 365.431C783.594 365.431 782.797 365.3 782.016 365.04C781.234 364.78 780.534 364.389 779.916 363.868C779.297 363.347 778.793 362.696 778.402 361.915C778.044 361.101 777.865 360.174 777.865 359.132V301.661C777.865 300.782 778.028 299.952 778.353 299.171C778.711 298.357 779.183 297.657 779.769 297.071C780.388 296.485 781.088 296.03 781.869 295.704C782.683 295.346 783.545 295.167 784.457 295.167H804.232C807.878 295.167 811.345 295.541 814.633 296.29C817.953 297.039 820.85 298.243 823.324 299.903C825.831 301.563 827.816 303.712 829.281 306.349C830.746 308.985 831.478 312.208 831.478 316.017C831.478 319.89 830.713 323.162 829.183 325.831C827.686 328.5 825.635 330.665 823.031 332.325C820.46 333.985 817.448 335.19 813.998 335.938C810.547 336.655 806.902 337.013 803.06 337.013H791ZM802.474 328.028C804.721 328.028 806.804 327.833 808.724 327.442C810.678 327.052 812.354 326.401 813.754 325.489C815.186 324.545 816.309 323.308 817.123 321.778C817.937 320.216 818.344 318.295 818.344 316.017C818.344 313.738 817.937 311.85 817.123 310.353C816.342 308.823 815.251 307.602 813.851 306.69C812.484 305.779 810.857 305.128 808.969 304.737C807.113 304.347 805.111 304.151 802.963 304.151H791V328.028H802.474ZM842.562 301.515C842.562 300.473 842.741 299.562 843.099 298.78C843.49 297.966 843.978 297.299 844.564 296.778C845.183 296.257 845.883 295.867 846.664 295.606C847.445 295.346 848.259 295.216 849.105 295.216C849.919 295.216 850.717 295.346 851.498 295.606C852.279 295.867 852.979 296.257 853.598 296.778C854.216 297.299 854.704 297.966 855.062 298.78C855.453 299.562 855.648 300.473 855.648 301.515V341.017C855.648 343.784 856.088 346.176 856.967 348.194C857.878 350.18 859.066 351.84 860.531 353.175C861.996 354.477 863.656 355.453 865.512 356.104C867.4 356.723 869.32 357.032 871.273 357.032C873.259 357.032 875.18 356.723 877.035 356.104C878.923 355.453 880.599 354.477 882.064 353.175C883.529 351.84 884.701 350.18 885.58 348.194C886.491 346.176 886.947 343.784 886.947 341.017V301.515C886.947 300.473 887.126 299.562 887.484 298.78C887.875 297.966 888.379 297.299 888.998 296.778C889.616 296.257 890.316 295.867 891.098 295.606C891.879 295.346 892.693 295.216 893.539 295.216C894.353 295.216 895.15 295.346 895.932 295.606C896.713 295.867 897.413 296.257 898.031 296.778C898.65 297.299 899.138 297.966 899.496 298.78C899.887 299.562 900.082 300.473 900.082 301.515V341.407C900.082 345.704 899.317 349.448 897.787 352.638C896.257 355.828 894.19 358.481 891.586 360.597C888.982 362.713 885.922 364.291 882.406 365.333C878.923 366.375 875.212 366.896 871.273 366.896C867.335 366.896 863.624 366.375 860.141 365.333C856.657 364.291 853.614 362.713 851.01 360.597C848.405 358.481 846.338 355.828 844.808 352.638C843.311 349.448 842.562 345.704 842.562 341.407V301.515ZM929.965 337.013V359.132C929.965 360.174 929.769 361.101 929.379 361.915C929.021 362.696 928.532 363.347 927.914 363.868C927.295 364.389 926.579 364.78 925.766 365.04C924.984 365.3 924.187 365.431 923.373 365.431C922.559 365.431 921.762 365.3 920.98 365.04C920.199 364.78 919.499 364.389 918.881 363.868C918.262 363.347 917.758 362.696 917.367 361.915C917.009 361.101 916.83 360.174 916.83 359.132V301.661C916.83 300.782 916.993 299.952 917.318 299.171C917.676 298.357 918.148 297.657 918.734 297.071C919.353 296.485 920.053 296.03 920.834 295.704C921.648 295.346 922.51 295.167 923.422 295.167H943.197C946.843 295.167 950.31 295.541 953.598 296.29C956.918 297.039 959.815 298.243 962.289 299.903C964.795 301.563 966.781 303.712 968.246 306.349C969.711 308.985 970.443 312.208 970.443 316.017C970.443 319.89 969.678 323.162 968.148 325.831C966.651 328.5 964.6 330.665 961.996 332.325C959.424 333.985 956.413 335.19 952.963 335.938C949.512 336.655 945.866 337.013 942.025 337.013H929.965ZM941.439 328.028C943.685 328.028 945.769 327.833 947.689 327.442C949.642 327.052 951.319 326.401 952.719 325.489C954.151 324.545 955.274 323.308 956.088 321.778C956.902 320.216 957.308 318.295 957.308 316.017C957.308 313.738 956.902 311.85 956.088 310.353C955.307 308.823 954.216 307.602 952.816 306.69C951.449 305.779 949.821 305.128 947.933 304.737C946.078 304.347 944.076 304.151 941.928 304.151H929.965V328.028H941.439Z" fill="black"/>
<line y1="-2.5" x2="63.2342" y2="-2.5" transform="matrix(-0.707153 0.707061 -0.707153 -0.707061 1214.72 43.1328)" stroke="black" stroke-width="5"/>
<line y1="-2.5" x2="63.2342" y2="-2.5" transform="matrix(-0.707153 -0.707061 0.707153 -0.707061 1219.86 87.7109)" stroke="black" stroke-width="5"/>
</svg>
