<svg width="416" height="256" viewBox="0 0 416 256" fill="none" xmlns="http://www.w3.org/2000/svg">
<g filter="url(#filter0_d_12965_70453)">
<path d="M344 16H24V224H344L392 120L344 16Z" fill="#252525"/>
<mask id="mask0_12965_70453" style="mask-type:alpha" maskUnits="userSpaceOnUse" x="24" y="16" width="368" height="208">
<path d="M344 16H24V224H344L392 120L344 16Z" fill="#252525"/>
</mask>
<g mask="url(#mask0_12965_70453)">
<rect width="368" height="48" transform="translate(24 176)" fill="white"/>
<path d="M139.615 197.38L139.835 206H142.415L141.815 192.68H138.995L135.555 202.14L132.115 192.68H129.295L128.695 206H131.275L131.495 197.38L133.955 204.28H137.155L139.615 197.38ZM152.245 199.58C152.245 197.14 151.345 196.06 148.285 196.06C147.205 196.06 145.865 196.24 144.945 196.52L145.245 198.38C146.105 198.2 147.065 198.08 147.945 198.08C149.505 198.08 149.805 198.46 149.805 199.54V200.56H147.465C145.485 200.56 144.625 201.32 144.625 203.3C144.625 204.98 145.385 206.2 147.165 206.2C148.145 206.2 149.185 205.92 150.065 205.34L150.245 206H152.245V199.58ZM149.805 203.76C149.345 204.02 148.685 204.26 147.965 204.26C147.205 204.26 146.985 203.96 146.985 203.28C146.985 202.54 147.205 202.32 148.005 202.32H149.805V203.76ZM159.749 203.96C159.329 204.08 158.889 204.16 158.529 204.16C157.889 204.16 157.649 203.82 157.649 203.3V198.2H159.989L160.149 196.26H157.649V193.5L155.209 193.84V196.26H153.749V198.2H155.209V203.62C155.209 205.36 156.109 206.2 157.889 206.2C158.509 206.2 159.509 206.04 160.029 205.82L159.749 203.96ZM163.959 202.56V202.06H169.379V199.98C169.379 197.88 168.679 196.06 165.559 196.06C162.439 196.06 161.519 197.8 161.519 199.86V202.44C161.519 204.78 162.579 206.2 165.639 206.2C166.799 206.2 168.119 206 169.219 205.58L168.839 203.74C167.779 204.06 166.799 204.2 165.859 204.2C164.379 204.2 163.959 203.74 163.959 202.56ZM163.959 199.62C163.959 198.7 164.379 198.06 165.579 198.06C166.779 198.06 167.059 198.7 167.059 199.62V200.1H163.959V199.62ZM176.368 196.06C175.508 196.3 174.348 196.98 173.808 197.34L173.648 196.26H171.588V206H174.028V199.72C174.908 199.16 175.668 198.72 176.608 198.3L176.368 196.06ZM180.688 206V196.26H178.248V206H180.688ZM180.688 194.88V192.06H178.248V194.88H180.688ZM190.702 199.58C190.702 197.14 189.802 196.06 186.742 196.06C185.662 196.06 184.322 196.24 183.402 196.52L183.702 198.38C184.562 198.2 185.522 198.08 186.402 198.08C187.962 198.08 188.262 198.46 188.262 199.54V200.56H185.922C183.942 200.56 183.082 201.32 183.082 203.3C183.082 204.98 183.842 206.2 185.622 206.2C186.602 206.2 187.642 205.92 188.522 205.34L188.702 206H190.702V199.58ZM188.262 203.76C187.802 204.02 187.142 204.26 186.422 204.26C185.662 204.26 185.442 203.96 185.442 203.28C185.442 202.54 185.662 202.32 186.462 202.32H188.262V203.76ZM195.746 206V191.94L193.306 192.28V206H195.746ZM205.081 203.16C205.081 201.16 204.821 200.8 202.101 200.08C200.781 199.74 200.721 199.68 200.721 198.9C200.721 198.3 200.901 198.06 201.961 198.06C202.721 198.06 203.901 198.2 204.641 198.34L204.881 196.4C204.041 196.18 202.861 196.06 201.961 196.06C199.181 196.06 198.321 196.92 198.321 198.88C198.321 200.76 198.601 201.36 200.981 201.94C202.561 202.32 202.681 202.62 202.681 203.22C202.681 203.96 202.521 204.2 201.441 204.2C200.441 204.2 199.361 204.02 198.541 203.78L198.201 205.64C199.101 205.96 200.521 206.2 201.561 206.2C204.501 206.2 205.081 205.04 205.081 203.16ZM211.785 206H219.945V203.78H214.305V200.34H219.505V198.12H214.305V194.9H219.945V192.68H211.785V206ZM223.865 206L225.825 202.98L227.765 206H230.265L227.105 201.1L230.185 196.26H227.745L225.825 199.22L223.885 196.26H221.445L224.525 201.1L221.385 206H223.865ZM240.16 199.44C240.16 197.22 239.12 196.06 237.16 196.06C235.94 196.06 234.94 196.46 234.08 197.08L233.84 196.26H231.9V210.28L234.34 209.94V205.92C235.1 206.08 236.08 206.2 236.94 206.2C239.2 206.2 240.16 204.92 240.16 202.76V199.44ZM234.34 199.02C234.86 198.54 235.72 198.14 236.52 198.14C237.42 198.14 237.72 198.58 237.72 199.38V202.82C237.72 203.7 237.38 204.12 236.5 204.12C235.8 204.12 234.98 204 234.34 203.86V199.02ZM244.564 202.56V202.06H249.984V199.98C249.984 197.88 249.284 196.06 246.164 196.06C243.044 196.06 242.124 197.8 242.124 199.86V202.44C242.124 204.78 243.184 206.2 246.244 206.2C247.404 206.2 248.724 206 249.824 205.58L249.444 203.74C248.384 204.06 247.404 204.2 246.464 204.2C244.984 204.2 244.564 203.74 244.564 202.56ZM244.564 199.62C244.564 198.7 244.984 198.06 246.184 198.06C247.384 198.06 247.664 198.7 247.664 199.62V200.1H244.564V199.62ZM256.973 196.06C256.113 196.3 254.953 196.98 254.413 197.34L254.253 196.26H252.193V206H254.633V199.72C255.513 199.16 256.273 198.72 257.213 198.3L256.973 196.06ZM263.988 203.96C263.567 204.08 263.128 204.16 262.768 204.16C262.128 204.16 261.888 203.82 261.888 203.3V198.2H264.228L264.388 196.26H261.888V193.5L259.448 193.84V196.26H257.988V198.2H259.448V203.62C259.448 205.36 260.348 206.2 262.128 206.2C262.748 206.2 263.748 206.04 264.268 205.82L263.988 203.96ZM268.637 206V196.26H266.197V206H268.637ZM268.637 194.88V192.06H266.197V194.88H268.637ZM277.971 203.16C277.971 201.16 277.711 200.8 274.991 200.08C273.671 199.74 273.611 199.68 273.611 198.9C273.611 198.3 273.791 198.06 274.851 198.06C275.611 198.06 276.791 198.2 277.531 198.34L277.771 196.4C276.931 196.18 275.751 196.06 274.851 196.06C272.071 196.06 271.211 196.92 271.211 198.88C271.211 200.76 271.491 201.36 273.871 201.94C275.451 202.32 275.571 202.62 275.571 203.22C275.571 203.96 275.411 204.2 274.331 204.2C273.331 204.2 272.251 204.02 271.431 203.78L271.091 205.64C271.991 205.96 273.411 206.2 274.451 206.2C277.391 206.2 277.971 205.04 277.971 203.16ZM282.377 202.56V202.06H287.797V199.98C287.797 197.88 287.097 196.06 283.977 196.06C280.857 196.06 279.937 197.8 279.937 199.86V202.44C279.937 204.78 280.997 206.2 284.057 206.2C285.217 206.2 286.537 206 287.637 205.58L287.257 203.74C286.197 204.06 285.217 204.2 284.277 204.2C282.797 204.2 282.377 203.74 282.377 202.56ZM282.377 199.62C282.377 198.7 282.797 198.06 283.997 198.06C285.197 198.06 285.477 198.7 285.477 199.62V200.1H282.377V199.62Z" fill="#191A1B"/>
</g>
<path d="M224.015 82.4918H224.954C224.954 91.5907 217.634 98.9835 208.626 98.9835C199.618 98.9835 192.298 91.5907 192.298 82.4918C192.298 73.3929 199.618 66 208.626 66C217.634 66 224.954 73.3929 224.954 82.4918H224.015H223.077C223.077 74.4354 216.602 67.9904 208.626 67.8956C200.65 67.8956 194.269 74.4354 194.175 82.4918C194.175 90.5481 200.65 96.9931 208.626 97.0879C216.602 97.0879 222.983 90.5481 223.077 82.4918H224.015ZM239.123 102.111C239.123 106.282 235.745 109.694 231.616 109.694C227.487 109.694 224.109 106.282 224.109 102.111C224.109 97.9409 227.487 94.5289 231.616 94.5289C235.839 94.5289 239.123 97.9409 239.123 102.111H240.062H241C241 96.8984 236.777 92.6333 231.616 92.6333C226.455 92.6333 222.232 96.8984 222.232 102.111C222.232 107.324 226.455 111.589 231.616 111.589C236.777 111.589 241 107.324 241 102.111H240.062H239.123ZM219.793 113.58C219.793 118.603 215.758 122.584 210.878 122.584C205.905 122.584 201.964 118.508 201.964 113.58C201.964 108.556 205.999 104.576 210.878 104.576C215.758 104.481 219.793 108.556 219.793 113.58H220.731H221.669C221.669 107.514 216.79 102.68 210.878 102.68C204.873 102.68 200.087 107.609 200.087 113.58C200.087 119.646 204.966 124.479 210.878 124.479C216.884 124.479 221.669 119.551 221.669 113.58H220.731H219.793ZM195.77 105.049C195.77 110.547 191.36 115.001 185.824 115.096C180.381 115.001 175.971 110.547 175.971 105.049C175.971 99.5522 180.381 95.0975 185.917 95.0028C191.36 95.0028 195.77 99.5522 195.77 105.049H196.709H197.647C197.647 98.5096 192.392 93.1072 185.824 93.1072C179.349 93.1072 174 98.4149 174 105.049C174 111.589 179.255 116.992 185.824 116.992C192.298 116.992 197.647 111.684 197.647 105.049H196.709H195.77ZM198.867 127.418C198.867 130.545 196.333 133.104 193.237 133.104C190.14 133.104 187.606 130.545 187.606 127.418C187.606 124.29 190.14 121.731 193.237 121.731C196.333 121.731 198.867 124.29 198.867 127.418H199.805H200.744C200.744 123.247 197.366 119.835 193.237 119.835C189.108 119.835 185.73 123.247 185.73 127.418C185.73 131.588 189.108 135 193.237 135C197.366 135 200.744 131.588 200.744 127.418H199.805H198.867ZM236.496 122.868C236.496 125.522 234.338 127.702 231.71 127.702C229.083 127.702 226.924 125.522 226.924 122.868C226.924 120.214 229.083 118.034 231.71 118.034C234.338 118.034 236.496 120.214 236.496 122.868H237.434H238.373C238.373 119.172 235.37 116.139 231.71 116.139C228.05 116.139 225.048 119.172 225.048 122.868C225.048 126.565 228.05 129.598 231.71 129.598C235.37 129.598 238.373 126.565 238.373 122.868H237.434H236.496Z" fill="white"/>
</g>
<defs>
<filter id="filter0_d_12965_70453" x="0" y="0" width="416" height="256" filterUnits="userSpaceOnUse" color-interpolation-filters="sRGB">
<feFlood flood-opacity="0" result="BackgroundImageFix"/>
<feColorMatrix in="SourceAlpha" type="matrix" values="0 0 0 0 0 0 0 0 0 0 0 0 0 0 0 0 0 0 127 0" result="hardAlpha"/>
<feOffset dy="8"/>
<feGaussianBlur stdDeviation="12"/>
<feComposite in2="hardAlpha" operator="out"/>
<feColorMatrix type="matrix" values="0 0 0 0 0.0993924 0 0 0 0 0.101302 0 0 0 0 0.104167 0 0 0 0.1 0"/>
<feBlend mode="normal" in2="BackgroundImageFix" result="effect1_dropShadow_12965_70453"/>
<feBlend mode="normal" in="SourceGraphic" in2="effect1_dropShadow_12965_70453" result="shape"/>
</filter>
</defs>
</svg>
