<svg width="412" height="256" viewBox="0 0 412 256" fill="none" xmlns="http://www.w3.org/2000/svg">
<g filter="url(#filter0_d_12965_70474)">
<path d="M392 16H24V224H392V16Z" fill="#F2B760"/>
<path fill-rule="evenodd" clip-rule="evenodd" d="M239.816 75.1822L233.348 81.5534L239.816 90.1602C240.043 90.4955 240.156 90.8309 240.043 91.1662C239.929 91.5015 239.702 91.8369 239.362 91.9486L215.645 101.338C215.532 101.45 215.305 101.45 215.191 101.45C214.851 101.45 214.511 101.338 214.284 101.003L208.043 92.8429L201.801 101.003C201.574 101.338 201.234 101.45 200.894 101.45C200.761 101.45 200.667 101.411 200.589 101.38C200.534 101.357 200.487 101.338 200.44 101.338L176.723 91.9486C176.383 91.7251 176.043 91.5015 176.043 91.1662C176.043 90.8309 176.043 90.4955 176.27 90.1602L182.851 81.5534L176.383 75.294C176.043 75.0704 175.929 74.6233 176.043 74.288C176.156 73.8409 176.383 73.6173 176.723 73.3938L200.44 64.1163C200.894 63.8928 201.348 64.0045 201.688 64.3399L208.043 70.5993L214.397 64.3399C214.738 64.0045 215.191 64.0045 215.645 64.1163L239.475 73.3938C239.816 73.5055 240.043 73.8409 240.156 74.1762C240.156 74.5115 240.043 74.9586 239.816 75.1822ZM236.865 74.9586L215.418 66.4636L210.085 71.7171L231.532 80.2121L236.865 74.9586ZM187.39 81.4417L208.043 89.6013L228.695 81.4417L208.043 73.282L187.39 81.4417ZM206 71.7171L200.667 66.4636L179.22 74.8468L184.553 80.2121L206 71.7171ZM178.993 90.3838L200.553 98.8788L206.227 91.3898L184.667 82.8947L178.993 90.3838ZM209.858 91.3898L215.532 98.8788L237.092 90.3838L231.418 82.8947L209.858 91.3898Z" fill="white"/>
<path d="M230.624 102.567C230.624 101.897 231.078 101.45 231.759 101.45C232.44 101.45 232.894 101.897 232.894 102.567V109.609C232.894 110.056 232.667 110.392 232.213 110.615L208.496 120.005C208.383 120.116 208.269 120.116 208.042 120.116C207.91 120.116 207.816 120.078 207.738 120.046C207.683 120.024 207.636 120.005 207.589 120.005L183.872 110.615C183.418 110.504 183.191 110.056 183.191 109.609V102.567C183.191 101.897 183.645 101.45 184.326 101.45C185.007 101.45 185.461 101.897 185.461 102.567V108.827L208.042 117.769L230.624 108.827V102.567Z" fill="white"/>
<rect width="368" height="48" transform="translate(24 176)" fill="white"/>
<path d="M110.096 206V200.66H115.376V198.44H110.096V194.9H115.816V192.68H107.576V206H110.096ZM120.365 206V196.26H117.925V206H120.365ZM120.365 194.88V192.06H117.925V194.88H120.365ZM131.36 206V198.94C131.36 197.2 130.78 196.06 129.16 196.06C128.02 196.06 126.48 196.48 125.26 197.08L125.02 196.26H123.16V206H125.6V199.24C126.48 198.78 127.54 198.42 128.14 198.42C128.7 198.42 128.92 198.68 128.92 199.2V206H131.36ZM136.498 206V196.26H134.058V206H136.498ZM136.498 194.88V192.06H134.058V194.88H136.498ZM145.833 203.16C145.833 201.16 145.573 200.8 142.853 200.08C141.533 199.74 141.473 199.68 141.473 198.9C141.473 198.3 141.653 198.06 142.713 198.06C143.473 198.06 144.653 198.2 145.393 198.34L145.633 196.4C144.793 196.18 143.613 196.06 142.713 196.06C139.933 196.06 139.073 196.92 139.073 198.88C139.073 200.76 139.353 201.36 141.733 201.94C143.313 202.32 143.433 202.62 143.433 203.22C143.433 203.96 143.273 204.2 142.193 204.2C141.193 204.2 140.113 204.02 139.293 203.78L138.953 205.64C139.853 205.96 141.273 206.2 142.313 206.2C145.253 206.2 145.833 205.04 145.833 203.16ZM156.438 206V198.94C156.438 197.2 155.858 196.06 154.238 196.06C153.198 196.06 151.758 196.44 150.678 197V191.94L148.238 192.28V206H150.678V199.24C151.558 198.78 152.618 198.42 153.218 198.42C153.778 198.42 153.998 198.68 153.998 199.2V206H156.438ZM161.136 202.56V202.06H166.556V199.98C166.556 197.88 165.856 196.06 162.736 196.06C159.616 196.06 158.696 197.8 158.696 199.86V202.44C158.696 204.78 159.756 206.2 162.816 206.2C163.976 206.2 165.296 206 166.396 205.58L166.016 203.74C164.956 204.06 163.976 204.2 163.036 204.2C161.556 204.2 161.136 203.74 161.136 202.56ZM161.136 199.62C161.136 198.7 161.556 198.06 162.756 198.06C163.956 198.06 164.236 198.7 164.236 199.62V200.1H161.136V199.62ZM168.365 202.82C168.365 205.04 169.405 206.2 171.365 206.2C172.585 206.2 173.585 205.8 174.445 205.18L174.685 206H176.625V191.94L174.185 192.28V196.34C173.425 196.18 172.445 196.06 171.585 196.06C169.325 196.06 168.365 197.34 168.365 199.5V202.82ZM174.185 203.24C173.665 203.72 172.805 204.12 172.005 204.12C171.105 204.12 170.805 203.68 170.805 202.88V199.44C170.805 198.56 171.145 198.14 172.025 198.14C172.725 198.14 173.545 198.26 174.185 198.4V203.24ZM183.729 192.68V206H188.689C191.969 206 193.109 204.32 193.109 202.42V196.26C193.109 194.34 191.969 192.68 188.689 192.68H183.729ZM186.249 194.9H188.429C190.129 194.9 190.589 195.58 190.589 196.86V201.82C190.589 203.1 190.129 203.78 188.429 203.78H186.249V194.9ZM197.699 202.56V202.06H203.119V199.98C203.119 197.88 202.419 196.06 199.299 196.06C196.179 196.06 195.259 197.8 195.259 199.86V202.44C195.259 204.78 196.319 206.2 199.379 206.2C200.539 206.2 201.859 206 202.959 205.58L202.579 203.74C201.519 204.06 200.539 204.2 199.599 204.2C198.119 204.2 197.699 203.74 197.699 202.56ZM197.699 199.62C197.699 198.7 198.119 198.06 199.319 198.06C200.519 198.06 200.799 198.7 200.799 199.62V200.1H197.699V199.62ZM213.488 196.26H210.988L208.748 203.66L206.528 196.26H204.028L207.148 206H210.368L213.488 196.26ZM217.436 206V196.26H214.996V206H217.436ZM217.436 194.88V192.06H214.996V194.88H217.436ZM223.99 206.2C224.79 206.2 225.73 206.06 226.37 205.84L226.07 203.84C225.37 204.02 224.67 204.1 224.05 204.1C222.65 204.1 222.23 203.68 222.23 202.48V199.78C222.23 198.58 222.65 198.16 224.05 198.16C224.53 198.16 225.41 198.24 226.07 198.42L226.37 196.42C225.65 196.18 224.67 196.06 223.99 196.06C220.93 196.06 219.79 197.18 219.79 199.8V202.46C219.79 205.08 220.93 206.2 223.99 206.2ZM230.453 202.56V202.06H235.873V199.98C235.873 197.88 235.173 196.06 232.053 196.06C228.933 196.06 228.013 197.8 228.013 199.86V202.44C228.013 204.78 229.073 206.2 232.133 206.2C233.293 206.2 234.613 206 235.713 205.58L235.333 203.74C234.273 204.06 233.293 204.2 232.353 204.2C230.873 204.2 230.453 203.74 230.453 202.56ZM230.453 199.62C230.453 198.7 230.873 198.06 232.073 198.06C233.273 198.06 233.553 198.7 233.553 199.62V200.1H230.453V199.62ZM250.681 202.38C250.681 199.72 250.501 199.14 246.921 198.28C244.621 197.72 244.581 197.68 244.581 196.16C244.581 195 244.881 194.64 246.581 194.64C247.741 194.64 249.041 194.8 250.141 195.04L250.421 192.92C249.101 192.62 247.701 192.48 246.541 192.48C243.161 192.48 242.061 193.68 242.061 196.1C242.061 198.92 242.501 199.54 245.721 200.26C248.121 200.78 248.161 200.9 248.161 202.38C248.161 203.66 247.861 204.04 246.041 204.04C244.721 204.04 243.521 203.8 242.281 203.42L241.841 205.4C242.721 205.82 244.481 206.2 246.001 206.2C249.941 206.2 250.681 204.9 250.681 202.38ZM254.984 202.56V202.06H260.404V199.98C260.404 197.88 259.704 196.06 256.584 196.06C253.464 196.06 252.544 197.8 252.544 199.86V202.44C252.544 204.78 253.604 206.2 256.664 206.2C257.824 206.2 259.144 206 260.244 205.58L259.864 203.74C258.804 204.06 257.824 204.2 256.884 204.2C255.404 204.2 254.984 203.74 254.984 202.56ZM254.984 199.62C254.984 198.7 255.404 198.06 256.604 198.06C257.804 198.06 258.084 198.7 258.084 199.62V200.1H254.984V199.62ZM267.393 196.06C266.533 196.3 265.373 196.98 264.833 197.34L264.673 196.26H262.613V206H265.053V199.72C265.933 199.16 266.693 198.72 267.633 198.3L267.393 196.06ZM277.785 196.26H275.285L273.045 203.66L270.825 196.26H268.325L271.445 206H274.665L277.785 196.26ZM281.733 206V196.26H279.293V206H281.733ZM281.733 194.88V192.06H279.293V194.88H281.733ZM288.287 206.2C289.087 206.2 290.027 206.06 290.667 205.84L290.367 203.84C289.667 204.02 288.967 204.1 288.347 204.1C286.947 204.1 286.527 203.68 286.527 202.48V199.78C286.527 198.58 286.947 198.16 288.347 198.16C288.827 198.16 289.707 198.24 290.367 198.42L290.667 196.42C289.947 196.18 288.967 196.06 288.287 196.06C285.227 196.06 284.087 197.18 284.087 199.8V202.46C284.087 205.08 285.227 206.2 288.287 206.2ZM294.75 202.56V202.06H300.17V199.98C300.17 197.88 299.47 196.06 296.35 196.06C293.23 196.06 292.31 197.8 292.31 199.86V202.44C292.31 204.78 293.37 206.2 296.43 206.2C297.59 206.2 298.91 206 300.01 205.58L299.63 203.74C298.57 204.06 297.59 204.2 296.65 204.2C295.17 204.2 294.75 203.74 294.75 202.56ZM294.75 199.62C294.75 198.7 295.17 198.06 296.37 198.06C297.57 198.06 297.85 198.7 297.85 199.62V200.1H294.75V199.62ZM308.919 203.16C308.919 201.16 308.659 200.8 305.939 200.08C304.619 199.74 304.559 199.68 304.559 198.9C304.559 198.3 304.739 198.06 305.799 198.06C306.559 198.06 307.739 198.2 308.479 198.34L308.719 196.4C307.879 196.18 306.699 196.06 305.799 196.06C303.019 196.06 302.159 196.92 302.159 198.88C302.159 200.76 302.439 201.36 304.819 201.94C306.399 202.32 306.519 202.62 306.519 203.22C306.519 203.96 306.359 204.2 305.279 204.2C304.279 204.2 303.199 204.02 302.379 203.78L302.039 205.64C302.939 205.96 304.359 206.2 305.399 206.2C308.339 206.2 308.919 205.04 308.919 203.16Z" fill="#191A1B"/>
</g>
<defs>
<filter id="filter0_d_12965_70474" x="0" y="0" width="416" height="256" filterUnits="userSpaceOnUse" color-interpolation-filters="sRGB">
<feFlood flood-opacity="0" result="BackgroundImageFix"/>
<feColorMatrix in="SourceAlpha" type="matrix" values="0 0 0 0 0 0 0 0 0 0 0 0 0 0 0 0 0 0 127 0" result="hardAlpha"/>
<feOffset dy="8"/>
<feGaussianBlur stdDeviation="12"/>
<feComposite in2="hardAlpha" operator="out"/>
<feColorMatrix type="matrix" values="0 0 0 0 0.0993924 0 0 0 0 0.101302 0 0 0 0 0.104167 0 0 0 0.1 0"/>
<feBlend mode="normal" in2="BackgroundImageFix" result="effect1_dropShadow_12965_70474"/>
<feBlend mode="normal" in="SourceGraphic" in2="effect1_dropShadow_12965_70474" result="shape"/>
</filter>
</defs>
</svg>
