<svg width="416" height="256" viewBox="0 0 416 256" fill="none" xmlns="http://www.w3.org/2000/svg">
<g filter="url(#filter0_d_12965_70460)">
<path d="M344 16H24V224H344L392 120L344 16Z" fill="#F2B760"/>
<mask id="mask0_12965_70460" style="mask-type:alpha" maskUnits="userSpaceOnUse" x="24" y="16" width="368" height="208">
<path d="M344 16H24V224H344L392 120L344 16Z" fill="#F2B760"/>
</mask>
<g mask="url(#mask0_12965_70460)">
<rect width="368" height="48" transform="translate(24 176)" fill="white"/>
<path d="M118.018 202.34C118.018 204.78 119.438 206.2 122.758 206.2C123.998 206.2 125.278 206.04 126.378 205.76L126.098 203.58C125.018 203.78 123.758 203.92 122.838 203.92C121.098 203.92 120.538 203.32 120.538 201.9V196.78C120.538 195.36 121.098 194.76 122.838 194.76C123.758 194.76 125.018 194.9 126.098 195.1L126.378 192.92C125.278 192.64 123.998 192.48 122.758 192.48C119.438 192.48 118.018 193.9 118.018 196.34V202.34ZM136.532 202.36V199.9C136.532 197.9 135.632 196.06 132.292 196.06C128.952 196.06 128.052 197.9 128.052 199.9V202.36C128.052 204.36 128.952 206.2 132.292 206.2C135.632 206.2 136.532 204.36 136.532 202.36ZM134.092 199.82V202.44C134.092 203.54 133.592 204.12 132.292 204.12C130.992 204.12 130.492 203.54 130.492 202.44V199.82C130.492 198.72 130.992 198.14 132.292 198.14C133.592 198.14 134.092 198.72 134.092 199.82ZM147.082 206V199.24C147.842 198.8 149.022 198.42 149.622 198.42C150.182 198.42 150.402 198.68 150.402 199.2V206H152.842V198.94C152.842 197.2 152.262 196.06 150.642 196.06C149.462 196.06 147.902 196.5 146.722 197.1C146.402 196.44 145.822 196.06 144.882 196.06C143.742 196.06 142.202 196.48 140.982 197.08L140.742 196.26H138.882V206H141.322V199.24C142.202 198.78 143.262 198.42 143.862 198.42C144.422 198.42 144.642 198.68 144.642 199.2V206H147.082ZM163.803 199.44C163.803 197.22 162.763 196.06 160.803 196.06C159.583 196.06 158.583 196.46 157.723 197.08L157.483 196.26H155.543V210.28L157.983 209.94V205.92C158.743 206.08 159.723 206.2 160.583 206.2C162.843 206.2 163.803 204.92 163.803 202.76V199.44ZM157.983 199.02C158.503 198.54 159.363 198.14 160.163 198.14C161.063 198.14 161.363 198.58 161.363 199.38V202.82C161.363 203.7 161.023 204.12 160.143 204.12C159.443 204.12 158.623 204 157.983 203.86V199.02ZM168.647 206V191.94L166.207 192.28V206H168.647ZM173.441 202.56V202.06H178.861V199.98C178.861 197.88 178.161 196.06 175.041 196.06C171.921 196.06 171.001 197.8 171.001 199.86V202.44C171.001 204.78 172.061 206.2 175.121 206.2C176.281 206.2 177.601 206 178.701 205.58L178.321 203.74C177.261 204.06 176.281 204.2 175.341 204.2C173.861 204.2 173.441 203.74 173.441 202.56ZM173.441 199.62C173.441 198.7 173.861 198.06 175.061 198.06C176.261 198.06 176.541 198.7 176.541 199.62V200.1H173.441V199.62ZM182.488 206L184.448 202.98L186.388 206H188.888L185.728 201.1L188.808 196.26H186.368L184.448 199.22L182.508 196.26H180.068L183.148 201.1L180.008 206H182.488ZM194.522 202.34C194.522 204.78 195.942 206.2 199.262 206.2C200.502 206.2 201.782 206.04 202.882 205.76L202.602 203.58C201.522 203.78 200.262 203.92 199.342 203.92C197.602 203.92 197.042 203.32 197.042 201.9V196.78C197.042 195.36 197.602 194.76 199.342 194.76C200.262 194.76 201.522 194.9 202.602 195.1L202.882 192.92C201.782 192.64 200.502 192.48 199.262 192.48C195.942 192.48 194.522 193.9 194.522 196.34V202.34ZM213.036 202.36V199.9C213.036 197.9 212.136 196.06 208.796 196.06C205.456 196.06 204.556 197.9 204.556 199.9V202.36C204.556 204.36 205.456 206.2 208.796 206.2C212.136 206.2 213.036 204.36 213.036 202.36ZM210.596 199.82V202.44C210.596 203.54 210.096 204.12 208.796 204.12C207.496 204.12 206.996 203.54 206.996 202.44V199.82C206.996 198.72 207.496 198.14 208.796 198.14C210.096 198.14 210.596 198.72 210.596 199.82ZM223.586 206V199.24C224.346 198.8 225.526 198.42 226.126 198.42C226.686 198.42 226.906 198.68 226.906 199.2V206H229.346V198.94C229.346 197.2 228.766 196.06 227.146 196.06C225.966 196.06 224.406 196.5 223.226 197.1C222.906 196.44 222.326 196.06 221.386 196.06C220.246 196.06 218.706 196.48 217.486 197.08L217.246 196.26H215.386V206H217.826V199.24C218.706 198.78 219.766 198.42 220.366 198.42C220.926 198.42 221.146 198.68 221.146 199.2V206H223.586ZM240.306 199.44C240.306 197.22 239.266 196.06 237.306 196.06C236.086 196.06 235.086 196.46 234.226 197.08L233.986 196.26H232.046V210.28L234.486 209.94V205.92C235.246 206.08 236.226 206.2 237.086 206.2C239.346 206.2 240.306 204.92 240.306 202.76V199.44ZM234.486 199.02C235.006 198.54 235.866 198.14 236.666 198.14C237.566 198.14 237.866 198.58 237.866 199.38V202.82C237.866 203.7 237.526 204.12 236.646 204.12C235.946 204.12 235.126 204 234.486 203.86V199.02ZM250.751 202.36V199.9C250.751 197.9 249.851 196.06 246.511 196.06C243.171 196.06 242.271 197.9 242.271 199.9V202.36C242.271 204.36 243.171 206.2 246.511 206.2C249.851 206.2 250.751 204.36 250.751 202.36ZM248.311 199.82V202.44C248.311 203.54 247.811 204.12 246.511 204.12C245.211 204.12 244.711 203.54 244.711 202.44V199.82C244.711 198.72 245.211 198.14 246.511 198.14C247.811 198.14 248.311 198.72 248.311 199.82ZM261.301 206V198.94C261.301 197.2 260.721 196.06 259.101 196.06C257.961 196.06 256.421 196.48 255.201 197.08L254.961 196.26H253.101V206H255.541V199.24C256.421 198.78 257.481 198.42 258.081 198.42C258.641 198.42 258.861 198.68 258.861 199.2V206H261.301ZM266 202.56V202.06H271.42V199.98C271.42 197.88 270.72 196.06 267.6 196.06C264.48 196.06 263.56 197.8 263.56 199.86V202.44C263.56 204.78 264.62 206.2 267.68 206.2C268.84 206.2 270.16 206 271.26 205.58L270.88 203.74C269.82 204.06 268.84 204.2 267.9 204.2C266.42 204.2 266 203.74 266 202.56ZM266 199.62C266 198.7 266.42 198.06 267.62 198.06C268.82 198.06 269.1 198.7 269.1 199.62V200.1H266V199.62ZM281.829 206V198.94C281.829 197.2 281.249 196.06 279.629 196.06C278.489 196.06 276.949 196.48 275.729 197.08L275.489 196.26H273.629V206H276.069V199.24C276.949 198.78 278.009 198.42 278.609 198.42C279.169 198.42 279.389 198.68 279.389 199.2V206H281.829ZM289.427 203.96C289.007 204.08 288.567 204.16 288.207 204.16C287.567 204.16 287.327 203.82 287.327 203.3V198.2H289.667L289.827 196.26H287.327V193.5L284.887 193.84V196.26H283.427V198.2H284.887V203.62C284.887 205.36 285.787 206.2 287.567 206.2C288.187 206.2 289.187 206.04 289.707 205.82L289.427 203.96ZM298.176 203.16C298.176 201.16 297.916 200.8 295.196 200.08C293.876 199.74 293.816 199.68 293.816 198.9C293.816 198.3 293.996 198.06 295.056 198.06C295.816 198.06 296.996 198.2 297.736 198.34L297.976 196.4C297.136 196.18 295.956 196.06 295.056 196.06C292.276 196.06 291.416 196.92 291.416 198.88C291.416 200.76 291.696 201.36 294.076 201.94C295.656 202.32 295.776 202.62 295.776 203.22C295.776 203.96 295.616 204.2 294.536 204.2C293.536 204.2 292.456 204.02 291.636 203.78L291.296 205.64C292.196 205.96 293.616 206.2 294.656 206.2C297.596 206.2 298.176 205.04 298.176 203.16Z" fill="#191A1B"/>
</g>
<path d="M225.014 68.5793L222.917 66.5227C222.269 65.8981 222.17 65.5934 221.293 66.0961C220.477 66.5455 219.813 67.0787 219.135 67.7719C218.464 68.4651 218.754 68.6402 219.173 69.3791C219.676 70.2551 220.141 71.0701 220.637 71.9308C220.172 72.5554 219.791 73.2181 219.501 73.9113C218.525 73.9113 217.541 73.9189 216.565 73.9265C215.665 73.9341 215.376 73.797 215.116 74.7644C214.872 75.6708 214.766 76.5087 214.781 77.4685C214.796 78.4435 215.139 78.3597 215.955 78.5882C216.916 78.8472 217.831 79.0909 218.792 79.3575C218.898 80.104 219.104 80.8505 219.386 81.5741C218.7 82.2596 218.006 82.968 217.32 83.6536C216.702 84.2934 216.39 84.4001 216.893 85.276C217.351 86.0834 217.869 86.7537 218.571 87.4164C219.264 88.0867 219.44 87.8049 220.179 87.386L222.719 85.9311C223.344 86.3881 224.015 86.7766 224.717 87.0737L224.732 89.9986C224.732 90.8365 224.572 91.1488 225.502 91.4154C226.44 91.682 227.279 91.8039 228.209 91.7963C229.208 91.7963 229.154 91.4764 229.391 90.6156L230.169 87.7897C230.923 87.6754 231.671 87.485 232.38 87.1955L234.454 89.2522C235.064 89.8539 235.163 90.1814 236.01 89.7016C236.856 89.2369 237.527 88.7266 238.19 88.0639C238.9 87.3479 238.625 87.1651 238.19 86.3957L236.742 83.8516C237.214 83.2346 237.596 82.5567 237.901 81.8636L240.821 81.8483C241.66 81.8483 241.973 82.0083 242.239 81.079C242.499 80.1497 242.621 79.3118 242.613 78.3825C242.605 77.3695 242.293 77.4304 241.416 77.1943L238.61 76.4249C238.488 75.6708 238.305 74.9167 238.007 74.1931L240.066 72.1289C240.669 71.5195 241.004 71.4205 240.524 70.5826C240.051 69.7295 239.548 69.0592 238.877 68.4041C238.152 67.6957 237.984 67.9623 237.207 68.4041L234.668 69.8514C234.042 69.3867 233.371 69.0059 232.677 68.7088L232.654 65.7914C232.654 64.885 232.784 64.5956 231.808 64.3366C230.916 64.0928 230.069 63.9862 229.101 64.0014C228.133 64.0243 228.209 64.3594 227.98 65.1821L227.21 67.9928C226.463 68.107 225.715 68.3051 224.999 68.5869M225.548 73.8199C227.797 72.0908 231.03 72.5097 232.761 74.772C234.484 77.0115 234.065 80.2487 231.808 81.9778C229.551 83.7069 226.318 83.2803 224.595 81.0333C222.856 78.7786 223.283 75.549 225.54 73.8199M195.672 90.9279C190.99 91.7963 187.902 96.298 188.771 100.983C189.648 105.659 194.147 108.744 198.829 107.868C203.511 107 206.599 102.498 205.73 97.8138C204.853 93.1369 200.346 90.052 195.664 90.9279M198.821 82.7091C200.117 82.8309 201.376 83.0975 202.58 83.5012L205.874 79.8755C206.828 78.8167 206.973 78.2607 208.429 78.9691C209.885 79.6774 211.06 80.4696 212.226 81.5208C213.469 82.6557 213.05 82.9757 212.371 84.3239L210.183 88.7037C210.999 89.6787 211.708 90.7527 212.287 91.9181L217.183 91.6896C218.677 91.6211 219.15 91.3621 219.684 92.9617C220.179 94.447 220.423 95.8333 220.484 97.4558C220.545 99.0706 219.981 98.9716 218.624 99.421L213.98 100.952C213.858 102.247 213.584 103.519 213.179 104.723L216.794 108.021C217.915 109.034 218.426 109.179 217.671 110.687C216.969 112.088 216.153 113.246 215.055 114.427C213.95 115.615 213.614 115.143 212.341 114.511L207.979 112.317C206.995 113.132 205.913 113.848 204.738 114.419L204.967 119.302C205.036 120.795 205.295 121.267 203.694 121.8C202.207 122.295 200.811 122.539 199.195 122.6C197.578 122.661 197.677 122.09 197.227 120.741L195.695 116.102C194.398 115.981 193.14 115.706 191.928 115.303L188.618 118.928C187.604 120.041 187.459 120.551 185.95 119.797C184.554 119.096 183.395 118.296 182.206 117.176C181.016 116.072 181.489 115.737 182.122 114.472L184.333 110.093C183.517 109.118 182.808 108.036 182.229 106.871L177.325 107.114C175.907 107.183 175.412 107.48 174.885 105.949C174.352 104.41 174.077 103.032 174.008 101.47C173.925 99.7866 174.458 99.8628 175.884 99.3829C177.44 98.8573 178.995 98.3394 180.551 97.829C180.681 96.5417 180.94 95.2849 181.352 94.0814C180.116 92.9617 178.95 91.9029 177.707 90.7832C176.654 89.8234 176.098 89.6863 176.807 88.2238C177.516 86.769 178.301 85.5959 179.361 84.4381C180.498 83.1966 180.818 83.6155 182.16 84.2934C183.632 85.0247 185.096 85.7483 186.56 86.4795V86.4948C187.536 85.6797 188.611 84.9713 189.778 84.3924C189.694 82.7243 189.625 81.1475 189.534 79.4794C189.465 78.0626 189.168 77.5675 190.7 77.0419C192.24 76.5087 193.628 76.2345 195.184 76.166C196.869 76.0822 196.793 76.6154 197.273 78.0321L198.829 82.6938L198.821 82.7091Z" stroke="white" stroke-width="2" stroke-miterlimit="10"/>
</g>
<defs>
<filter id="filter0_d_12965_70460" x="0" y="0" width="416" height="256" filterUnits="userSpaceOnUse" color-interpolation-filters="sRGB">
<feFlood flood-opacity="0" result="BackgroundImageFix"/>
<feColorMatrix in="SourceAlpha" type="matrix" values="0 0 0 0 0 0 0 0 0 0 0 0 0 0 0 0 0 0 127 0" result="hardAlpha"/>
<feOffset dy="8"/>
<feGaussianBlur stdDeviation="12"/>
<feComposite in2="hardAlpha" operator="out"/>
<feColorMatrix type="matrix" values="0 0 0 0 0.0993924 0 0 0 0 0.101302 0 0 0 0 0.104167 0 0 0 0.1 0"/>
<feBlend mode="normal" in2="BackgroundImageFix" result="effect1_dropShadow_12965_70460"/>
<feBlend mode="normal" in="SourceGraphic" in2="effect1_dropShadow_12965_70460" result="shape"/>
</filter>
</defs>
</svg>
