<svg width="416" height="256" viewBox="0 0 416 256" fill="none" xmlns="http://www.w3.org/2000/svg">
<g filter="url(#filter0_d_12965_70467)">
<path d="M344 16H24V224H344L392 120L344 16Z" fill="#252525"/>
<mask id="mask0_12965_70467" style="mask-type:alpha" maskUnits="userSpaceOnUse" x="24" y="16" width="368" height="208">
<path d="M344 16H24V224H344L392 120L344 16Z" fill="#252525"/>
</mask>
<g mask="url(#mask0_12965_70467)">
<rect width="368" height="48" transform="translate(24 176)" fill="white"/>
<path d="M106.382 197.38L106.602 206H109.182L108.582 192.68H105.762L102.322 202.14L98.8821 192.68H96.0621L95.4621 206H98.0421L98.2621 197.38L100.722 204.28H103.922L106.382 197.38ZM119.013 199.58C119.013 197.14 118.113 196.06 115.053 196.06C113.973 196.06 112.633 196.24 111.713 196.52L112.013 198.38C112.873 198.2 113.833 198.08 114.713 198.08C116.273 198.08 116.573 198.46 116.573 199.54V200.56H114.233C112.253 200.56 111.393 201.32 111.393 203.3C111.393 204.98 112.153 206.2 113.933 206.2C114.913 206.2 115.953 205.92 116.833 205.34L117.013 206H119.013V199.58ZM116.573 203.76C116.113 204.02 115.453 204.26 114.733 204.26C113.973 204.26 113.753 203.96 113.753 203.28C113.753 202.54 113.973 202.32 114.773 202.32H116.573V203.76ZM129.817 206V198.94C129.817 197.2 129.237 196.06 127.617 196.06C126.477 196.06 124.937 196.48 123.717 197.08L123.477 196.26H121.617V206H124.057V199.24C124.937 198.78 125.997 198.42 126.597 198.42C127.157 198.42 127.377 198.68 127.377 199.2V206H129.817ZM132.415 196.26V203.32C132.415 205.06 132.995 206.2 134.615 206.2C135.755 206.2 137.295 205.78 138.515 205.18L138.755 206H140.615V196.26H138.175V203.02C137.295 203.48 136.235 203.84 135.635 203.84C135.075 203.84 134.855 203.58 134.855 203.06V196.26H132.415ZM149.274 192.16C148.634 191.98 147.934 191.88 147.174 191.88C145.014 191.88 144.074 192.88 144.074 194.9V196.26H142.514V198.2H144.074V206H146.514V198.2H148.854L148.994 196.26H146.514V195.04C146.514 194.3 146.654 193.88 147.614 193.88C148.014 193.88 148.554 193.94 149.014 194.04L149.274 192.16ZM157.704 199.58C157.704 197.14 156.804 196.06 153.744 196.06C152.664 196.06 151.324 196.24 150.404 196.52L150.704 198.38C151.564 198.2 152.524 198.08 153.404 198.08C154.964 198.08 155.264 198.46 155.264 199.54V200.56H152.924C150.944 200.56 150.084 201.32 150.084 203.3C150.084 204.98 150.844 206.2 152.624 206.2C153.604 206.2 154.644 205.92 155.524 205.34L155.704 206H157.704V199.58ZM155.264 203.76C154.804 204.02 154.144 204.26 153.424 204.26C152.664 204.26 152.444 203.96 152.444 203.28C152.444 202.54 152.664 202.32 153.464 202.32H155.264V203.76ZM164.068 206.2C164.868 206.2 165.808 206.06 166.448 205.84L166.148 203.84C165.448 204.02 164.748 204.1 164.128 204.1C162.728 204.1 162.308 203.68 162.308 202.48V199.78C162.308 198.58 162.728 198.16 164.128 198.16C164.608 198.16 165.488 198.24 166.148 198.42L166.448 196.42C165.728 196.18 164.748 196.06 164.068 196.06C161.008 196.06 159.868 197.18 159.868 199.8V202.46C159.868 205.08 161.008 206.2 164.068 206.2ZM173.587 203.96C173.167 204.08 172.727 204.16 172.367 204.16C171.727 204.16 171.487 203.82 171.487 203.3V198.2H173.827L173.987 196.26H171.487V193.5L169.047 193.84V196.26H167.587V198.2H169.047V203.62C169.047 205.36 169.947 206.2 171.727 206.2C172.347 206.2 173.347 206.04 173.867 205.82L173.587 203.96ZM175.696 196.26V203.32C175.696 205.06 176.276 206.2 177.896 206.2C179.036 206.2 180.576 205.78 181.796 205.18L182.036 206H183.896V196.26H181.456V203.02C180.576 203.48 179.516 203.84 178.916 203.84C178.356 203.84 178.136 203.58 178.136 203.06V196.26H175.696ZM191.475 196.06C190.615 196.3 189.455 196.98 188.915 197.34L188.755 196.26H186.695V206H189.135V199.72C190.015 199.16 190.775 198.72 191.715 198.3L191.475 196.06ZM195.795 206V196.26H193.355V206H195.795ZM195.795 194.88V192.06H193.355V194.88H195.795ZM206.789 206V198.94C206.789 197.2 206.209 196.06 204.589 196.06C203.449 196.06 201.909 196.48 200.689 197.08L200.449 196.26H198.589V206H201.029V199.24C201.909 198.78 202.969 198.42 203.569 198.42C204.129 198.42 204.349 198.68 204.349 199.2V206H206.789ZM212.808 203.4C215.528 203.4 216.728 202.2 216.728 200.22V199.3C216.728 198.74 216.608 198.2 216.388 197.78C216.728 197.68 217.128 197.58 217.468 197.48V196.26H214.468C213.988 196.14 213.468 196.06 212.808 196.06C209.988 196.06 208.928 197.28 208.888 199.3V200.22C208.888 201.4 209.308 202.3 210.208 202.84C209.728 203.18 209.188 203.7 209.188 204.5C209.188 205.74 209.728 206.2 211.108 206.36C212.348 206.5 212.808 206.56 213.928 206.68C214.668 206.76 214.848 206.86 214.848 207.46C214.848 208.1 214.468 208.24 212.528 208.24C211.388 208.24 210.288 208.08 209.248 207.82L208.948 209.64C210.048 209.98 211.588 210.14 212.708 210.14C216.348 210.14 217.108 209.32 217.108 207.24C217.108 205.84 216.608 205.06 215.028 204.88C213.888 204.76 213.288 204.7 212.208 204.58C211.828 204.54 211.668 204.42 211.668 204.16C211.668 203.86 211.928 203.58 212.248 203.38C212.428 203.4 212.608 203.4 212.808 203.4ZM214.448 199.38V200.12C214.448 201.06 213.968 201.44 212.808 201.44C211.668 201.44 211.188 201.08 211.188 200.12V199.38C211.188 198.46 211.608 198.02 212.808 198.02C214.028 198.02 214.448 198.46 214.448 199.38ZM234.272 200.38V198.32H227.552C226.532 198.32 226.172 197.8 226.172 197V195.8C226.172 194.94 226.592 194.56 227.832 194.56C229.012 194.56 230.452 194.66 231.672 194.88L231.892 192.88C230.612 192.6 229.252 192.48 227.932 192.48C224.752 192.48 223.712 193.76 223.712 195.7V196.74C223.712 197.76 224.032 198.64 225.092 199.16C223.932 199.58 223.472 200.56 223.472 201.8V202.92C223.472 204.88 224.512 206.2 227.692 206.2C229.172 206.2 230.932 206 232.332 205.54V200.38H234.272ZM227.752 204.18C226.292 204.18 225.932 203.7 225.932 202.66V201.82C225.932 200.82 226.572 200.38 227.752 200.38H230.012V204C229.252 204.14 228.352 204.18 227.752 204.18ZM249.157 206H251.797L247.597 192.68H244.077L239.877 206H242.517L243.357 203.24H248.297L249.157 206ZM245.837 194.76L247.657 201.06H243.977L245.837 194.76ZM260.247 203.16C260.247 201.16 259.987 200.8 257.267 200.08C255.947 199.74 255.887 199.68 255.887 198.9C255.887 198.3 256.067 198.06 257.127 198.06C257.887 198.06 259.067 198.2 259.807 198.34L260.047 196.4C259.207 196.18 258.027 196.06 257.127 196.06C254.347 196.06 253.487 196.92 253.487 198.88C253.487 200.76 253.767 201.36 256.147 201.94C257.727 202.32 257.847 202.62 257.847 203.22C257.847 203.96 257.687 204.2 256.607 204.2C255.607 204.2 254.527 204.02 253.707 203.78L253.367 205.64C254.267 205.96 255.687 206.2 256.727 206.2C259.667 206.2 260.247 205.04 260.247 203.16ZM269.192 203.16C269.192 201.16 268.932 200.8 266.212 200.08C264.892 199.74 264.832 199.68 264.832 198.9C264.832 198.3 265.012 198.06 266.072 198.06C266.832 198.06 268.012 198.2 268.752 198.34L268.992 196.4C268.152 196.18 266.972 196.06 266.072 196.06C263.292 196.06 262.432 196.92 262.432 198.88C262.432 200.76 262.712 201.36 265.092 201.94C266.672 202.32 266.792 202.62 266.792 203.22C266.792 203.96 266.632 204.2 265.552 204.2C264.552 204.2 263.472 204.02 262.652 203.78L262.312 205.64C263.212 205.96 264.632 206.2 265.672 206.2C268.612 206.2 269.192 205.04 269.192 203.16ZM273.597 202.56V202.06H279.017V199.98C279.017 197.88 278.317 196.06 275.197 196.06C272.077 196.06 271.157 197.8 271.157 199.86V202.44C271.157 204.78 272.217 206.2 275.277 206.2C276.437 206.2 277.757 206 278.857 205.58L278.477 203.74C277.417 204.06 276.437 204.2 275.497 204.2C274.017 204.2 273.597 203.74 273.597 202.56ZM273.597 199.62C273.597 198.7 274.017 198.06 275.217 198.06C276.417 198.06 276.697 198.7 276.697 199.62V200.1H273.597V199.62ZM289.426 206V199.24C290.186 198.8 291.366 198.42 291.966 198.42C292.526 198.42 292.746 198.68 292.746 199.2V206H295.186V198.94C295.186 197.2 294.606 196.06 292.986 196.06C291.806 196.06 290.246 196.5 289.066 197.1C288.746 196.44 288.166 196.06 287.226 196.06C286.086 196.06 284.546 196.48 283.326 197.08L283.086 196.26H281.226V206H283.666V199.24C284.546 198.78 285.606 198.42 286.206 198.42C286.766 198.42 286.986 198.68 286.986 199.2V206H289.426ZM306.146 199.4C306.146 197.34 305.306 196.06 303.206 196.06C302.146 196.06 301.046 196.34 300.326 196.64V191.94L297.886 192.28V205.86C299.106 206.1 300.686 206.2 301.666 206.2C305.426 206.2 306.146 204.62 306.146 202.26V199.4ZM300.326 198.7C300.926 198.42 301.786 198.14 302.466 198.14C303.366 198.14 303.706 198.56 303.706 199.34V202.34C303.706 203.48 303.386 204.12 301.786 204.12C301.266 204.12 300.766 204.1 300.326 204.04V198.7ZM310.893 206V191.94L308.453 192.28V206H310.893ZM321.847 196.26H319.347L317.107 203.66L314.887 196.26H312.387L315.467 206H316.327L315.107 209.94H317.427L318.727 206L321.847 196.26Z" fill="#191A1B"/>
</g>
<path d="M201.051 92.7422L192.617 100.906C192.414 101.108 192.145 101.176 191.875 101.176C191.335 101.176 190.863 100.771 190.863 100.164V100.096L191.065 97.9374H190.525H183.913H182.699H181.012C180.472 97.9374 180 97.4651 180 96.9253V87.1422C180 86.6024 180.472 86.1301 181.012 86.1301H181.349H182.699H183.846H186.41H190.458H190.998L190.795 83.9711V83.9036C190.795 83.2964 191.335 82.8916 191.807 82.8916C192.077 82.8916 192.347 82.959 192.549 83.1614L200.983 91.3253C201.186 91.5277 201.32 91.7976 201.32 92.0675C201.32 92.2699 201.253 92.5398 201.051 92.7422ZM199.836 92L192.28 84.7133L192.414 86.4V86.4675C192.414 87.0072 191.942 87.4795 191.402 87.4795H190.525H186.477H183.913H182.699H181.349V96.5205H182.699H183.846H190.458H191.335C191.875 96.5205 192.347 96.9928 192.347 97.5325V97.6L192.212 99.2868L199.836 92ZM236 87.1422V96.8578C236 97.3976 235.528 97.8699 234.988 97.8699H233.301H232.154H225.542H225.002L225.205 100.029V100.096C225.205 100.704 224.665 101.108 224.193 101.108C223.923 101.108 223.653 101.041 223.451 100.839L215.084 92.7422C214.882 92.5398 214.747 92.2699 214.747 92C214.747 91.7301 214.882 91.4602 215.084 91.2578L223.518 83.094C223.72 82.8916 223.99 82.8241 224.26 82.8241C224.8 82.8241 225.272 83.2289 225.272 83.8361V83.9036L225.07 86.0627H225.61H229.658H232.222H233.301H234.651H234.92C235.528 86.1301 236 86.6024 236 87.1422ZM233.301 96.5205H234.651V87.4795H233.301H232.154H229.59H225.542H224.665C224.125 87.4795 223.653 87.0072 223.653 86.4675V86.4L223.788 84.7133L216.164 92L223.72 99.2868L223.586 97.6V97.5325C223.586 96.9928 224.058 96.5205 224.598 96.5205H225.475H232.087H233.301ZM216.906 107.383C217.108 107.586 217.176 107.855 217.176 108.125C217.176 108.665 216.771 109.137 216.164 109.137H216.096L213.937 108.935V109.475V116.087V117.301V118.988C213.937 119.528 213.465 120 212.925 120H203.142C202.602 120 202.13 119.528 202.13 118.988V118.651V117.301V116.154V113.59V109.542V109.002L199.971 109.205H199.904C199.296 109.205 198.892 108.665 198.892 108.193C198.892 107.923 198.959 107.653 199.161 107.451L207.325 99.0169C207.528 98.8145 207.798 98.6795 208.067 98.6795C208.337 98.6795 208.607 98.8145 208.81 99.0169L216.906 107.383ZM203.48 108.598V109.475V113.523V116.087V117.301V118.651H212.52V117.301V116.154V109.542V108.665C212.52 108.125 212.993 107.653 213.533 107.653H213.6L215.287 107.788L208 100.164L200.713 107.72L202.4 107.586H202.467C203.007 107.586 203.48 108.058 203.48 108.598ZM199.161 76.6169C198.959 76.4145 198.892 76.1446 198.892 75.8747C198.892 75.3349 199.296 74.8627 199.904 74.8627H199.971L202.13 75.0651V74.5253V70.4771V67.9133V66.6988V65.3494V65.012C202.13 64.4723 202.602 64 203.142 64H212.858C213.398 64 213.87 64.4723 213.87 65.012V66.6988V67.8458V74.4578V74.9976L216.029 74.7952H216.096C216.704 74.7952 217.108 75.3349 217.108 75.8072C217.108 76.0771 217.041 76.347 216.839 76.5494L208.742 85.0506C208.54 85.253 208.27 85.388 208 85.388C207.73 85.388 207.46 85.253 207.258 85.0506L199.161 76.6169ZM212.52 75.4024V74.5253V67.9133V66.6988V65.3494H203.48V66.6988V67.8458V70.4096V74.4578V75.3349C203.48 75.8747 203.007 76.347 202.467 76.347H202.4L200.713 76.212L208 83.7687L215.287 76.212L213.6 76.347H213.533C212.993 76.4145 212.52 76.0096 212.52 75.4024ZM202.737 92C202.737 94.9012 205.099 97.2627 208 97.2627C210.901 97.2627 213.263 94.9012 213.263 92C213.263 89.0988 210.901 86.7374 208 86.7374C205.099 86.7374 202.737 89.0988 202.737 92Z" fill="white"/>
</g>
<defs>
<filter id="filter0_d_12965_70467" x="0" y="0" width="416" height="256" filterUnits="userSpaceOnUse" color-interpolation-filters="sRGB">
<feFlood flood-opacity="0" result="BackgroundImageFix"/>
<feColorMatrix in="SourceAlpha" type="matrix" values="0 0 0 0 0 0 0 0 0 0 0 0 0 0 0 0 0 0 127 0" result="hardAlpha"/>
<feOffset dy="8"/>
<feGaussianBlur stdDeviation="12"/>
<feComposite in2="hardAlpha" operator="out"/>
<feColorMatrix type="matrix" values="0 0 0 0 0.0993924 0 0 0 0 0.101302 0 0 0 0 0.104167 0 0 0 0.1 0"/>
<feBlend mode="normal" in2="BackgroundImageFix" result="effect1_dropShadow_12965_70467"/>
<feBlend mode="normal" in="SourceGraphic" in2="effect1_dropShadow_12965_70467" result="shape"/>
</filter>
</defs>
</svg>
